<svg width="51" height="60" viewBox="0 0 51 60" fill="none" xmlns="http://www.w3.org/2000/svg">
<path d="M31.7412 6.6582L26.3435 0.567447C25.7295 -0.125412 24.6656 -0.193201 23.9673 0.416038C23.9132 0.463217 23.8623 0.513792 23.8147 0.567447L18.417 6.6582H31.7412Z" fill="black"/>
<path d="M7.82149 12.5051H25.5001C25.965 12.5051 26.3419 12.8791 26.3419 13.3404V14.1757C26.3419 14.637 25.965 15.0109 25.5001 15.0109H7.82149C7.35656 15.0109 6.97965 14.637 6.97965 14.1757V13.3404C6.97965 12.8791 7.35656 12.5051 7.82149 12.5051ZM7.82149 17.5168H25.5001C25.965 17.5168 26.3419 17.8907 26.3419 18.352V19.1873C26.3419 19.6486 25.965 20.0226 25.5001 20.0226H7.82149C7.35656 20.0226 6.97965 19.6486 6.97965 19.1873V18.352C6.97965 17.8907 7.35656 17.5168 7.82149 17.5168ZM7.82149 22.5284H25.5001C25.965 22.5284 26.3419 22.9024 26.3419 23.3637V24.199C26.3419 24.6603 25.965 25.0342 25.5001 25.0342H7.82149C7.35656 25.0342 6.97965 24.6603 6.97965 24.199V23.3637C6.97965 22.9024 7.35656 22.5284 7.82149 22.5284ZM30.5511 12.5051H42.3368C42.8018 12.5051 43.1787 12.8791 43.1787 13.3404V24.199C43.1787 24.6603 42.8018 25.0342 42.3368 25.0342H30.5511C30.0862 25.0342 29.7093 24.6603 29.7093 24.199V13.3404C29.7093 12.8791 30.0862 12.5051 30.5511 12.5051ZM24.6582 27.5401H42.3368C42.8018 27.5401 43.1787 27.914 43.1787 28.3753V29.2106C43.1787 29.6719 42.8018 30.0459 42.3368 30.0459H24.6582C24.1933 30.0459 23.8164 29.6719 23.8164 29.2106V28.3753C23.8164 27.914 24.1933 27.5401 24.6582 27.5401ZM46.546 29.6021V9.99928C46.546 9.07667 45.7922 8.32874 44.8624 8.32874H5.29598C4.36611 8.32874 3.6123 9.07667 3.6123 9.99928V28.9496L6.97965 31.5598V28.3753C6.97965 27.914 7.35656 27.5401 7.82149 27.5401H19.6072C20.0722 27.5401 20.4491 27.914 20.4491 28.3753V39.2339C20.4491 39.6952 20.0722 40.0692 19.6072 40.0692H17.9572L25.5001 45.9161L33.0429 40.0692H24.6582C24.1933 40.0692 23.8164 39.6952 23.8164 39.2339V38.3986C23.8164 37.9373 24.1933 37.5634 24.6582 37.5634H36.2756L39.5083 35.0575H24.6582C24.1933 35.0575 23.8164 34.6836 23.8164 34.2223V33.387C23.8164 32.9257 24.1933 32.5517 24.6582 32.5517H42.3368C42.451 32.5517 42.5599 32.5743 42.6591 32.6151L46.546 29.6021Z" fill="black"/>
<path d="M32.3322 43.5005L25.5 48.7965L18.7289 43.5478L2.50844 59.6418C2.59455 59.6506 2.68193 59.6551 2.77039 59.6551H48.2296C48.3514 59.6551 48.4712 59.6465 48.5884 59.63L32.3322 43.5005ZM50.5816 58.0639C50.6936 57.7805 50.7551 57.472 50.7551 57.1492V32.091C50.7551 31.2467 50.3343 30.4999 49.6894 30.0459L34.3373 41.9462L50.5816 58.0639ZM16.7237 41.9935L1.31066 30.0459C0.665732 30.4999 0.244873 31.2467 0.244873 32.091V57.1492C0.244873 57.5013 0.31803 57.8363 0.450083 58.1403L16.7237 41.9935Z" fill="black"/>
</svg>
