<svg width="716" height="172" viewBox="0 0 716 172" fill="none" xmlns="http://www.w3.org/2000/svg">
<rect width="714" height="100" fill="#2274A5"/>
<path d="M15.273 133.354L11.9898 160H7.40533L10.6885 133.354H3.30133L3.82184 129.09H22.8604L22.3399 133.354H15.273Z" fill="white"/>
<path d="M49.7699 129.09L49.2494 133.354H37.8983L36.9173 141.362H48.2684L47.7879 145.326H36.4369L35.1556 155.736H46.5067L45.9662 160H30.0506L33.8543 129.09H49.7699Z" fill="white"/>
<path d="M84.9274 131.853L84.3068 136.857C81.6241 134.135 78.4277 132.773 74.7174 132.773C71.4475 132.773 68.805 133.935 66.7897 136.257C64.761 138.566 63.7467 141.575 63.7467 145.286C63.7467 148.756 64.721 151.465 66.6696 153.414C68.6048 155.349 71.3408 156.316 74.8776 156.316C77.8271 156.316 80.4296 155.409 82.6852 153.594L82.0245 159.019C79.1818 160.073 76.5325 160.601 74.0768 160.601C69.5924 160.601 65.9822 159.179 63.2462 156.336C60.5102 153.52 59.1422 149.77 59.1422 145.085C59.1422 140.307 60.597 136.344 63.5065 133.194C66.4293 130.044 70.0996 128.469 74.5172 128.469C78.0006 128.469 81.4707 129.597 84.9274 131.853Z" fill="white"/>
<path d="M120.245 129.09L116.441 160H111.857L113.719 144.905H100.946L99.1044 160H94.5199L98.3236 129.09H102.888L101.407 141.202H114.179L115.661 129.09H120.245Z" fill="white"/>
<path d="M160.908 129.09L156.864 162.122L138.106 138.179L135.423 160H130.839L134.862 127.408L153.621 151.312L156.343 129.09H160.908Z" fill="white"/>
<path d="M204.033 143.944C204.033 147.468 203.099 150.664 201.23 153.534C199.749 155.789 197.814 157.531 195.425 158.759C193.036 159.987 190.393 160.601 187.497 160.601C182.866 160.601 179.089 159.126 176.166 156.176C173.243 153.213 171.782 149.383 171.782 144.685C171.782 140 173.33 136.13 176.426 133.074C179.536 130.004 183.46 128.469 188.198 128.469C192.936 128.469 196.759 129.891 199.669 132.733C202.578 135.563 204.033 139.3 204.033 143.944ZM199.429 143.904C199.429 140.528 198.428 137.825 196.426 135.796C194.424 133.781 191.735 132.773 188.358 132.773C184.968 132.773 182.118 133.908 179.81 136.177C177.527 138.446 176.386 141.282 176.386 144.685C176.386 148.048 177.447 150.831 179.569 153.033C181.691 155.222 184.374 156.316 187.617 156.316C190.994 156.316 193.803 155.135 196.045 152.773C198.301 150.437 199.429 147.481 199.429 143.904Z" fill="white"/>
<path d="M223.175 129.09L219.912 155.736H228.66L228.14 160H214.807L218.611 129.09H223.175Z" fill="white"/>
<path d="M270.064 143.944C270.064 147.468 269.13 150.664 267.261 153.534C265.78 155.789 263.845 157.531 261.456 158.759C259.067 159.987 256.424 160.601 253.528 160.601C248.897 160.601 245.12 159.126 242.197 156.176C239.274 153.213 237.813 149.383 237.813 144.685C237.813 140 239.361 136.13 242.457 133.074C245.567 130.004 249.491 128.469 254.229 128.469C258.966 128.469 262.79 129.891 265.7 132.733C268.609 135.563 270.064 139.3 270.064 143.944ZM265.459 143.904C265.459 140.528 264.458 137.825 262.457 135.796C260.455 133.781 257.765 132.773 254.389 132.773C250.999 132.773 248.149 133.908 245.84 136.177C243.558 138.446 242.417 141.282 242.417 144.685C242.417 148.048 243.478 150.831 245.6 153.033C247.722 155.222 250.405 156.316 253.648 156.316C257.025 156.316 259.834 155.135 262.076 152.773C264.332 150.437 265.459 147.481 265.459 143.904Z" fill="white"/>
<path d="M297.534 145.626H309.906C309.599 149.136 308.758 152.012 307.384 154.254C304.794 158.485 300.951 160.601 295.852 160.601C291.555 160.601 288.018 159.153 285.242 156.256C282.466 153.36 281.078 149.663 281.078 145.166C281.078 142.723 281.552 140.341 282.499 138.019C283.434 135.75 284.742 133.854 286.423 132.333C289.239 129.757 292.729 128.469 296.893 128.469C301.992 128.469 306.216 130.545 309.566 134.695L306.583 137.738C304.06 134.428 300.804 132.773 296.813 132.773C293.517 132.773 290.841 133.915 288.785 136.197C286.717 138.506 285.682 141.462 285.682 145.065C285.682 148.375 286.65 151.078 288.585 153.173C290.52 155.269 293.036 156.316 296.133 156.316C298.321 156.316 300.19 155.716 301.738 154.515C303.273 153.313 304.261 151.672 304.701 149.59H297.034L297.534 145.626Z" fill="white"/>
<path d="M331.851 146.167L330.149 160H325.565L327.326 145.846L319.298 129.09H324.223L329.929 141.382L338.037 129.09H343.302L331.851 146.167Z" fill="white"/>
<path d="M382.346 146.967L390.114 160H385.269L377.942 147.288H376.28L374.719 160H370.134L373.938 129.09H380.004C381.979 129.09 383.547 129.27 384.709 129.63C385.856 129.964 386.857 130.578 387.712 131.472C389.326 133.127 390.134 135.263 390.134 137.878C390.134 142.67 387.538 145.699 382.346 146.967ZM377.982 133.354L376.781 143.284H378.883C380.431 143.284 381.586 143.137 382.346 142.843C383.16 142.55 383.841 142.049 384.388 141.342C385.136 140.354 385.509 139.193 385.509 137.858C385.509 136.297 385.056 135.156 384.148 134.435C383.254 133.714 381.839 133.354 379.904 133.354H377.982Z" fill="white"/>
<path d="M421.247 129.09L420.727 133.354H409.376L408.395 141.362H419.746L419.266 145.326H407.914L406.633 155.736H417.984L417.444 160H401.528L405.332 129.09H421.247Z" fill="white"/>
<path d="M456.405 131.853L455.784 136.857C453.102 134.135 449.905 132.773 446.195 132.773C442.925 132.773 440.283 133.935 438.267 136.257C436.239 138.566 435.224 141.575 435.224 145.286C435.224 148.756 436.199 151.465 438.147 153.414C440.082 155.349 442.818 156.316 446.355 156.316C449.305 156.316 451.907 155.409 454.163 153.594L453.502 159.019C450.659 160.073 448.01 160.601 445.554 160.601C441.07 160.601 437.46 159.179 434.724 156.336C431.988 153.52 430.62 149.77 430.62 145.085C430.62 140.307 432.075 136.344 434.984 133.194C437.907 130.044 441.577 128.469 445.995 128.469C449.478 128.469 452.948 129.597 456.405 131.853Z" fill="white"/>
<path d="M477.809 146.967L485.577 160H480.732L473.405 147.288H471.743L470.182 160H465.597L469.401 129.09H475.467C477.442 129.09 479.01 129.27 480.171 129.63C481.319 129.964 482.32 130.578 483.174 131.472C484.789 133.127 485.597 135.263 485.597 137.878C485.597 142.67 483.001 145.699 477.809 146.967ZM473.445 133.354L472.244 143.284H474.346C475.894 143.284 477.048 143.137 477.809 142.843C478.623 142.55 479.304 142.049 479.851 141.342C480.598 140.354 480.972 139.193 480.972 137.858C480.972 136.297 480.518 135.156 479.611 134.435C478.717 133.714 477.302 133.354 475.367 133.354H473.445Z" fill="white"/>
<path d="M523.237 129.09L520.994 147.388C520.487 151.418 519.54 154.368 518.152 156.236C515.923 159.146 512.826 160.601 508.863 160.601C505.686 160.601 503.037 159.64 500.915 157.718C498.806 155.769 497.752 153.354 497.752 150.471C497.752 149.857 497.772 149.209 497.812 148.529C497.865 147.848 497.939 147.127 498.032 146.367L500.154 129.09H504.719L502.536 146.947C502.47 147.481 502.416 147.975 502.376 148.429C502.35 148.882 502.336 149.303 502.336 149.69C502.336 151.745 502.91 153.367 504.058 154.555C505.219 155.743 506.794 156.336 508.782 156.336C511.105 156.336 512.866 155.589 514.068 154.094C515.269 152.586 516.083 150.137 516.51 146.747L518.672 129.09H523.237Z" fill="white"/>
<path d="M542.218 129.09L538.415 160H533.83L537.634 129.09H542.218Z" fill="white"/>
<path d="M564.663 133.354L561.38 160H556.796L560.079 133.354H552.692L553.212 129.09H572.251L571.73 133.354H564.663Z" fill="white"/>
<path d="M610.872 126.167L613.414 160H609.05L607.669 140.301L595.697 162.162L589.07 140.301L582.904 160H578.22L588.91 126.908L596.738 152.172L610.872 126.167Z" fill="white"/>
<path d="M645.969 129.09L645.449 133.354H634.098L633.117 141.362H644.468L643.987 145.326H632.636L631.355 155.736H642.706L642.165 160H626.25L630.054 129.09H645.969Z" fill="white"/>
<path d="M685.111 129.09L681.067 162.122L662.308 138.179L659.626 160H655.041L659.065 127.408L677.823 151.312L680.546 129.09H685.111Z" fill="white"/>
<path d="M707.576 133.354L704.292 160H699.708L702.991 133.354H695.604L696.124 129.09H715.163L714.643 133.354H707.576Z" fill="white"/>
<path d="M55.0287 35.2144C46.7505 35.2144 42.3885 37.3442 42.3885 40.6994C42.3885 42.5472 43.5485 43.7823 45.8685 44.6187C50.2257 46.1893 56.7927 45.6836 64.9079 46.7485C74.8446 48.0371 79.5901 51.509 79.5901 58.2826C79.5901 66.7922 71.9734 71.7909 57.7897 71.7909C47.6325 71.7909 39.7952 69.593 34 64.9444L37.643 60.0818C43.6882 63.9447 50.698 65.9696 57.8424 65.9169C67.3382 65.9169 72.4144 63.116 72.4144 58.7494C72.4144 52.9824 65.6269 52.9824 53.8687 52.1995C41.5592 51.3388 35.3805 49.3792 35.3805 41.599C35.3805 34.0377 42.5706 29.282 55.5128 29.282C64.1362 29.282 71.3886 31.2952 77.1407 35.2728L73.1142 39.8047C67.1704 36.7267 61.3224 35.2144 55.0287 35.2144Z" fill="white"/>
<path d="M134.944 42.9411C134.944 50.9498 129.868 55.3699 120.372 55.3699H96.5875V70.8184H89.963V30.2886H121.643C129.811 30.2886 134.944 35.2727 134.944 42.9411ZM128.157 43.0529C128.157 38.5745 125.453 36.3911 120.042 36.3911H96.5875V49.2673H120.483C125.506 49.2673 128.157 47.084 128.157 43.0529Z" fill="white"/>
<path d="M142.561 70.8184V30.2886H182.826V36.3911H149.181V46.7485H172.582V52.8511H149.181V64.7207H184.393V70.8184H142.561Z" fill="white"/>
<path d="M231.584 70.8184L201.007 37.5679V70.8184H194.383V30.2886H202.608L233.128 63.5245V30.2886H239.752V70.8184H231.584Z" fill="white"/>
<path d="M293.726 41.7108C289.532 37.174 284.067 35.1609 276.729 35.1609C265.579 35.1609 258.034 41.6525 258.034 50.4441C258.034 59.5712 265.32 65.7856 277.131 65.7856C284.321 65.7856 289.546 63.7676 293.798 59.1238L299.483 62.3137C293.688 69.1991 286.68 71.9416 276.743 71.9416C269.788 71.9416 263.499 69.9285 259.137 66.5928C253.768 62.4839 251.141 57.0524 251.141 50.4441C251.141 43.9476 253.85 38.5745 259.257 34.4315C263.647 31.018 269.884 29 276.729 29C286.555 29 294.503 32.6372 299.737 39.5275L293.726 41.7108Z" fill="white"/>
<path d="M310.834 70.8184V30.2886H351.127V36.3911H317.458V46.7485H340.86V52.8511H317.458V64.7207H352.671V70.8184H310.834Z" fill="white"/>
<path d="M400.303 70.8184L389.484 55.3699H369.285V70.8184H362.66V30.2886H394.177C402.565 30.2886 407.641 35.2144 407.641 43.0529C407.641 50.2204 403.227 54.0278 397.264 55.0344L407.972 70.8184H400.303ZM400.854 43.048C400.854 38.5696 398.151 36.3863 392.576 36.3863H369.285V49.2673H393.18C398.151 49.2673 400.854 47.0305 400.854 43.0529V43.048Z" fill="white"/>
<path d="M451.736 35.2144C443.458 35.2144 439.096 37.3442 439.096 40.6994C439.096 42.5472 440.256 43.7823 442.576 44.6187C446.933 46.1893 453.505 45.6836 461.615 46.7485C471.552 48.0371 476.297 51.509 476.297 58.2826C476.297 66.7922 468.681 71.7763 454.497 71.7763C444.34 71.7763 436.503 69.593 430.707 64.9687L434.35 60.1061C440.396 63.969 447.405 65.9939 454.55 65.9412C464.046 65.9412 469.122 63.1404 469.122 58.7737C469.122 53.0067 462.334 53.0067 450.576 52.2238C438.271 51.3826 432.088 49.4229 432.088 41.6428C432.088 34.0814 439.278 29.3258 452.22 29.3258C460.848 29.3258 468.038 31.3389 473.853 35.3165L469.826 39.8485C463.878 36.7267 458.03 35.2144 451.736 35.2144Z" fill="white"/>
<path d="M525.861 41.7108C521.667 37.174 516.203 35.1609 508.859 35.1609C497.71 35.1609 490.165 41.6525 490.165 50.4441C490.165 59.5712 497.451 65.7856 509.262 65.7856C516.452 65.7856 521.681 63.7676 525.928 59.1238L531.613 62.3137C525.818 69.1991 518.81 71.9416 508.873 71.9416C501.918 71.9416 495.629 69.9285 491.267 66.5928C485.913 62.5082 483.267 57.0767 483.267 50.4684C483.267 43.972 485.971 38.5988 491.378 34.4558C495.778 31.018 502.014 29 508.859 29C518.686 29 526.633 32.6372 531.867 39.5275L525.861 41.7108Z" fill="white"/>
<path d="M581.494 66.6268C577.079 69.982 570.895 72 563.94 72C556.985 72 550.638 69.9285 546.281 66.5685C540.927 62.4839 538.219 57.1058 538.219 50.4976C538.219 44.006 540.98 38.628 546.368 34.485C550.835 31.0812 557.071 29 563.916 29C570.761 29 576.997 31.0715 581.412 34.485C586.79 38.628 589.556 44.0741 589.556 50.4976C589.556 57.1058 586.848 62.552 581.494 66.6268ZM576.7 38.9683C573.498 36.6148 568.973 35.1609 563.95 35.1609C552.8 35.1609 545.131 41.6525 545.131 50.4976C545.131 59.6247 552.469 65.8391 563.95 65.8391C575.43 65.8391 582.644 59.5712 582.644 50.4976C582.654 45.7954 580.664 41.9345 576.691 38.9683H576.7Z" fill="white"/>
<path d="M616.922 36.3911V70.8184H610.302V36.3911H591.205V30.2886H636.019V36.3911H616.922Z" fill="white"/>
<path d="M661.903 36.3911V70.8184H655.279V36.3911H636.182V30.2886H681V36.3911H661.903Z" fill="white"/>
</svg>
