<svg width="130" height="64" viewBox="0 0 130 64" fill="none" xmlns="http://www.w3.org/2000/svg">
<path d="M90.2981 30.9613C90.2981 31.2148 90.2932 31.4683 90.2932 31.7208V47.9025H84.0356V20.2497C84.1112 20.2497 84.1868 20.2401 84.2613 20.2401C85.9295 20.2401 87.6055 20.2401 89.2776 20.2401C89.3469 20.2348 89.4164 20.247 89.4795 20.2756C89.5425 20.3042 89.597 20.3481 89.6377 20.4033C94.0364 25.7469 98.438 31.089 102.843 36.4294C102.886 36.4823 102.933 36.5312 103.021 36.6292V20.2554H109.279V47.9178H109.067C107.567 47.9178 106.068 47.9178 104.569 47.9178C104.504 47.9226 104.439 47.911 104.381 47.8841C104.322 47.8571 104.272 47.8159 104.234 47.7642C100.914 43.7373 97.5938 39.7107 94.2732 35.6844C92.9681 34.102 91.6598 32.5209 90.3481 30.9411L90.3001 30.8979L90.2981 30.9613Z" fill="#EB0017"/>
<path d="M66.0186 48.612C62.6097 48.516 59.0693 47.1343 56.1961 44.2807C53.2984 41.4002 51.8462 37.9071 51.905 33.8572C51.9629 29.9329 53.4515 26.5666 56.2795 23.7984C58.8259 21.3058 61.9169 19.8886 65.5123 19.6275C70.1527 19.2914 74.1474 20.7499 77.3954 24.0106C80.1881 26.8114 81.5688 30.2239 81.5619 34.127C81.5491 42.0685 74.9982 48.5746 66.0186 48.612ZM75.272 34.7482C75.272 31.763 74.431 29.7985 72.7913 28.1778C71.1516 26.557 69.1076 25.7284 66.7663 25.7111C64.425 25.6938 62.3801 26.5138 60.7237 28.1365C58.7827 30.0366 57.9281 32.3612 58.2244 35.0362C58.4146 36.8864 59.2595 38.6133 60.6128 39.9187C62.5273 41.7977 64.8489 42.6667 67.5622 42.4247C71.6325 42.0618 75.3377 38.6215 75.272 34.7482Z" fill="#EB0017"/>
<path d="M54.2278 47.9178H53.9717C51.8522 47.9178 49.7327 47.9178 47.6131 47.9178C47.5467 47.9277 47.4789 47.9137 47.4222 47.8784C47.3656 47.8431 47.3239 47.7889 47.305 47.7258C45.6368 43.793 43.9648 39.862 42.2888 35.933C41.8599 34.9306 41.4184 33.9301 40.9866 32.9239C40.5876 31.9963 40.1911 31.0682 39.7973 30.1394C38.9789 28.2011 38.1612 26.2622 37.3442 24.3227C37.3177 24.2612 37.2814 24.2036 37.2303 24.1076C35.4434 28.3151 33.6722 32.4745 31.8854 36.6685H32.1709C34.3951 36.6685 36.6167 36.6685 38.8357 36.6685C38.9064 36.6588 38.9784 36.6745 39.0382 36.7128C39.0979 36.7512 39.1414 36.8095 39.1605 36.8769C39.9396 38.6321 40.7246 40.3856 41.5155 42.1376C41.5459 42.2058 41.5715 42.2759 41.6136 42.3806H41.3144C37.4547 42.3806 33.5924 42.3783 29.7276 42.3738C29.5019 42.3738 29.4194 42.4545 29.3429 42.635C28.6256 44.3335 27.9004 46.0282 27.1841 47.7239C27.1321 47.8468 27.086 47.9217 26.9251 47.9217C24.7427 47.9153 22.5604 47.9153 20.378 47.9217C20.3545 47.9217 20.3309 47.9217 20.2799 47.913C20.2984 47.848 20.3204 47.7839 20.3457 47.721C22.5856 42.6705 24.8261 37.6204 27.0673 32.5705C29.5382 27.0015 32.0067 21.43 34.473 15.8559C34.5524 15.6754 34.6417 15.6101 34.8478 15.612C36.4492 15.6216 38.052 15.6216 39.656 15.612C39.866 15.612 39.9504 15.6821 40.0299 15.8598C42.2835 20.9544 44.5404 26.0478 46.8006 31.1399C49.2427 36.6448 51.6844 42.1524 54.1258 47.6624C54.1533 47.7383 54.1847 47.8141 54.2278 47.9178Z" fill="#EB0017"/>
<path d="M90.2981 30.9613L90.304 30.8979L90.3521 30.9411L90.2981 30.9613Z" fill="#F8BEC4"/>
</svg>
