<svg width="215" height="64" viewBox="0 0 215 64" fill="none" xmlns="http://www.w3.org/2000/svg">
<path d="M109.212 27.7543C109.212 26.5616 109.103 25.3688 109.03 24.176H111.51V26.6339H111.583C112.714 24.8628 114.72 23.7784 116.836 23.7784C118.623 23.7784 120.958 24.3568 122.016 27.1399C123.001 25.0796 125.08 23.7784 127.378 23.7784C131.537 23.7784 133.506 26.0917 133.506 30.1037V40.405H131.208V30.9712C131.208 27.6821 130.26 25.911 127.086 25.911C123.657 25.911 122.49 28.8025 122.49 31.8025V40.405H120.192V30.9712C120.192 27.6821 119.243 25.911 116.07 25.911C115.523 25.911 111.474 26.2363 111.474 32.1278V40.405H109.176V27.7543H109.212ZM138.285 32.8507C138.577 36.1037 141.021 38.67 144.267 38.67C146.383 38.67 148.353 37.6218 149.484 35.8869L151.271 37.3327C149.63 39.5375 147.04 40.8025 144.267 40.7664C139.416 40.7664 135.841 37.1519 135.841 32.2724C135.841 27.3929 139.416 23.7784 144.085 23.7784C149.046 23.8146 151.891 27.429 151.891 31.8748V32.923L138.285 32.8507ZM149.338 30.9712C149.338 27.8989 147.332 25.8025 144.049 25.8025C141.057 25.8025 138.321 28.3327 138.321 30.9712H149.338ZM171.371 40.3327H169.072V37.6218H168.999C167.504 39.7905 164.805 40.7303 162.652 40.7303C157.545 40.7303 153.971 37.1158 153.971 32.2363C153.971 27.3568 157.545 23.7423 162.652 23.7423C164.805 23.7423 167.504 24.6821 168.999 26.8507H169.072V17.3086H171.371V40.3327ZM162.652 38.67C166.227 38.67 169.145 35.7784 169.145 32.2363C169.145 28.6941 166.227 25.8025 162.652 25.8025C158.859 25.8025 156.488 28.5857 156.488 32.2363C156.488 35.8869 158.859 38.6339 162.652 38.67ZM176.003 20.6339C175.091 20.6339 174.325 19.8748 174.325 18.9712C174.325 18.0676 175.091 17.3086 176.003 17.3086C176.915 17.3086 177.681 18.0676 177.681 18.9712C177.645 19.8748 176.915 20.5977 176.003 20.6339ZM177.134 40.3327H174.836V24.0676H177.134V40.3327ZM191.616 30.3929V29.9953C191.616 27.2122 190.266 25.8025 187.421 25.8025C185.56 25.7664 183.81 26.4531 182.423 27.6821L181.037 26.0556C182.533 24.5375 184.867 23.7062 187.932 23.7062C191.142 23.7062 193.877 25.5134 193.877 29.4531V36.6821C193.877 37.8748 193.987 39.1037 194.169 40.2965H191.944C191.798 39.429 191.725 38.5616 191.725 37.658H191.652C190.339 39.7905 188.515 40.6941 185.889 40.6941C183.007 40.6941 180.271 39.1037 180.271 35.9592C180.271 30.7182 186.509 30.3568 190.412 30.3568H191.616V30.3929ZM190.412 32.2724C188.077 32.2724 182.825 32.4531 182.825 35.7062C182.825 37.8387 184.794 38.67 186.655 38.67C190.011 38.67 191.616 36.3206 191.616 33.4652V32.3086H190.412V32.2724Z" fill="black"/>
<path d="M104.616 27.4652C104.616 29.3447 103.084 30.8628 101.187 30.8628C99.29 30.8628 97.7579 29.3447 97.7579 27.4652C97.7579 25.5857 99.29 24.0676 101.187 24.0676C103.084 24.0676 104.616 25.5857 104.616 27.4652ZM104.616 36.9712C104.616 38.8507 103.084 40.3688 101.187 40.3688C99.29 40.3688 97.7579 38.8507 97.7579 36.9712C97.7579 35.0917 99.29 33.5736 101.187 33.5736C103.084 33.5736 104.616 35.0917 104.616 36.9712ZM91.5931 30.8628C89.6963 30.8628 88.1642 29.3447 88.1642 27.4652C88.1642 25.5857 89.6963 24.0676 91.5931 24.0676C93.49 24.0676 95.0221 25.5857 95.0221 27.4652C95.0221 29.3447 93.4535 30.8628 91.5931 30.8628ZM91.5931 40.3688C89.6963 40.3688 88.1642 38.8507 88.1642 36.9712C88.1642 35.0917 89.6963 33.5736 91.5931 33.5736C93.49 33.5736 95.0221 35.0917 95.0221 36.9712C95.0221 38.8507 93.4535 40.3688 91.5931 40.3688Z" fill="#994F99"/>
<path d="M57.9604 23.7784C56.4284 23.8869 55.0057 24.5375 53.9114 25.5857C53.729 25.7664 53.5466 25.9471 53.4007 26.164C52.3793 24.7182 50.6284 23.5977 47.6007 23.8146C46.3604 23.8869 45.1567 24.3568 44.1718 25.1158V24.1037L39.1013 25.0074V40.2604H44.1718V31.0797C44.1718 29.6339 45.3755 28.4411 46.8347 28.4411C48.2938 28.4411 49.4975 29.6339 49.4975 31.0797V40.2604H54.568V30.7182C54.7504 29.417 55.8812 28.4411 57.1944 28.4411C58.6535 28.4411 59.8573 29.6339 59.8573 31.0797V40.2604H64.9277V30.176C64.9277 27.6459 63.6145 23.417 57.9604 23.7784ZM32.2435 20.2724V25.1881C31.1856 24.5013 29.9818 24.1037 28.7416 24.0315C24.0724 23.67 20.2787 27.3206 20.2787 31.9833C20.2787 36.6459 24.2913 40.7303 28.924 40.405C30.0913 40.3327 31.2586 39.9712 32.2435 39.3206V40.2604H37.3139V19.405L32.2435 20.2724ZM28.7781 35.417C26.8812 35.3809 25.3491 33.8628 25.3126 31.9833C25.3491 30.1037 26.8812 28.5495 28.7781 28.5495C30.6749 28.5857 32.207 30.1037 32.2435 31.9833C32.2435 33.8628 30.7114 35.3809 28.7781 35.417ZM78.4611 24.6459V25.5134C77.4397 24.7182 76.1994 24.2483 74.8862 24.176C70.217 23.9592 66.4233 27.3568 66.4233 32.0194C66.4233 36.6821 70.5818 40.9471 75.1781 40.3688C76.3818 40.2242 77.5126 39.7182 78.4611 38.9592V39.3929C78.4611 41.67 76.7831 43.1881 72.3693 42.2122L70.3265 46.1881C75.5064 47.8146 83.568 47.3086 83.568 38.3809V23.7423L78.4611 24.6459ZM74.9227 35.417C73.0259 35.3809 71.4938 33.8628 71.4573 31.9833C71.4938 30.1037 73.0259 28.5857 74.9227 28.5495C76.8196 28.5857 78.3516 30.1037 78.3881 31.9833C78.3516 33.8628 76.8196 35.3809 74.9227 35.417Z" fill="black"/>
</svg>
