<svg width="148" height="64" viewBox="0 0 148 64" fill="none" xmlns="http://www.w3.org/2000/svg">
<mask id="mask0_301_1174" style="mask-type:luminance" maskUnits="userSpaceOnUse" x="20" y="17" width="108" height="30">
<path d="M127.377 17.612H20.3773V46.612H127.377V17.612Z" fill="white"/>
</mask>
<g mask="url(#mask0_301_1174)">
<path d="M24.6972 17.6117L20.3773 46.6117H40.0486L40.5547 43.1734H24.8779L26.3094 33.5619H39.324L39.8303 30.1656H26.8156L28.1725 21.0498H43.817L44.148 18.8253L44.3289 17.6116L24.6972 17.6117Z" fill="#12171D"/>
<path d="M70.9263 17.612H47.1752L46.5033 22.1271H62.7606L42.8932 43.132L42.3738 46.612H67.0878L67.7614 42.0968H50.5395L70.4068 21.0918L70.9263 17.612Z" fill="#12171D"/>
<path d="M94.1444 32.1755C95.2687 30.7693 95.9953 29.0883 96.2491 27.307C96.5419 25.3469 96.3211 23.6411 95.5868 22.1898C94.8542 20.7405 93.6927 19.6153 92.1024 18.8142C90.5121 18.0132 88.5927 17.6126 86.3438 17.6126H73.768L69.4503 46.6126H76.2406L77.6721 37.0009H83.0614L86.7132 46.6126H94.1634L89.9065 35.4681C91.5629 34.7252 93.0164 33.596 94.1444 32.1755ZM89.2824 27.307C89.0807 28.6596 88.4837 29.7227 87.4917 30.4963C86.4996 31.27 85.2297 31.657 83.6818 31.6571H78.4678L79.7579 22.9989H84.9721C86.5193 22.9989 87.6751 23.3782 88.4393 24.1368C89.2035 24.8954 89.4846 25.9522 89.2824 27.307Z" fill="#12171D"/>
<path d="M120.829 17.612H111.101L95.8276 46.612H104.197L106.903 41.1033H117.594L118.702 46.612H127.377L120.829 17.612ZM109.856 35.0951L114.499 25.6906L116.385 35.0951H109.856Z" fill="#12171D"/>
</g>
</svg>
