<svg width="179" height="64" viewBox="0 0 179 64" fill="none" xmlns="http://www.w3.org/2000/svg">
<path fill-rule="evenodd" clip-rule="evenodd" d="M94.801 28.0189C94.801 27.4508 94.5504 27.2021 94.0849 27.2021H88.0337C87.4969 27.2021 87.3536 27.3796 87.3536 27.9477V43.181C87.3536 44.1042 86.8166 44.3172 86.1361 44.3172C85.3843 44.3172 84.8114 44.1042 84.8114 43.181V27.9832C84.8114 27.4508 84.7398 27.2021 84.1668 27.2021H82.2335C81.4457 27.2021 81.2666 26.8825 81.2666 26.1723C81.2666 25.5687 81.4457 25.1782 82.2335 25.1782H84.131C84.7398 25.1782 84.8114 25.0006 84.8114 24.468V23.2251C84.8114 19.6743 87.0672 18.0764 92.3662 18.0764C94.9801 18.0764 96.0185 18.1828 96.5554 18.3605C97.0924 18.5379 97.1642 18.8575 97.1642 19.2128C97.1642 19.7097 97.0208 19.9937 96.3049 19.9937H92.6526C88.4993 19.9937 87.3536 20.8816 87.3536 23.3672V24.468C87.3536 25.0006 87.4254 25.1782 88.0337 25.1782H95.8036C96.6987 25.1782 97.343 25.6042 97.343 26.5274V43.181C97.343 44.1042 96.806 44.3172 96.0899 44.3172C95.3739 44.3172 94.801 44.1042 94.801 43.181V28.0189ZM100.744 27.344C100.744 26.0657 101.102 25.7108 101.997 25.4976C103.787 25.0361 106.15 24.8229 107.69 24.8229C109.552 24.8229 109.874 25.1425 109.874 25.9238C109.874 26.5629 109.623 26.9536 109.086 26.9536C108.478 26.9536 107.869 26.847 106.974 26.847C104.074 26.847 103.286 27.0955 103.286 28.6934V43.181C103.286 44.1042 102.785 44.3172 102.068 44.3172C101.317 44.3172 100.744 44.1042 100.744 43.181V27.344ZM112.236 32.2088C112.236 33.2741 112.559 33.4162 114.134 33.4162H118.896C121.331 33.4162 121.725 33.2386 121.725 31.463C121.725 28.3738 120.472 26.8115 117.392 26.8115C113.955 26.8115 112.236 28.5515 112.236 31.8892V32.2088ZM113.49 35.2626C112.38 35.298 112.236 35.582 112.236 36.5054C112.236 40.6244 113.74 42.5063 118.502 42.5063C120.149 42.5063 121.689 42.2578 122.512 42.0447C123.157 41.867 123.587 42.1868 123.587 42.8259C123.587 43.2519 123.479 43.5715 123.085 43.7847C122.047 44.2463 120.364 44.5304 118.216 44.5304C112.308 44.5304 109.694 42.1868 109.694 35.6888V33.3807C109.694 26.7759 113.096 24.8229 117.464 24.8229C122.154 24.8229 124.195 27.3087 124.195 31.4986C124.195 34.659 123.515 35.0139 120.042 35.085L113.49 35.2626ZM138.517 20.6686C138.517 20.2069 138.087 19.9937 135.33 19.9937C131.427 19.9937 130.89 20.988 130.89 23.4382V24.468C130.89 25.0006 130.962 25.1782 131.57 25.1782H134.22C135.008 25.1782 135.187 25.5687 135.187 26.1723C135.187 26.8825 135.008 27.2021 134.22 27.2021H131.57C131.033 27.2021 130.89 27.3796 130.89 27.9477V43.181C130.89 44.1042 130.353 44.3172 129.673 44.3172C128.921 44.3172 128.348 44.1042 128.348 43.181V27.9832C128.348 27.4508 128.276 27.2021 127.703 27.2021H125.77C124.982 27.2021 124.803 26.8825 124.803 26.1723C124.803 25.5687 124.982 25.1782 125.77 25.1782H127.668C128.276 25.1782 128.348 25.0006 128.348 24.468V23.4025C128.348 19.5322 130.317 18.0764 135.151 18.0764C137.228 18.0764 139.018 18.2894 140.199 18.5026C140.915 18.6445 141.059 18.8931 141.059 19.8518V39.8431C141.059 41.7961 141.453 42.5419 143.135 42.5419H143.959C144.675 42.5419 144.818 42.8259 144.818 43.2875C144.818 43.7136 144.711 43.9977 144.281 44.1398C143.923 44.2817 143.064 44.3883 142.204 44.3883C138.91 44.3883 138.517 42.3998 138.517 39.4171V20.6686Z" fill="#AC1D1D"/>
<path fill-rule="evenodd" clip-rule="evenodd" d="M146.321 50.5667C144.567 50.5667 144.066 50.2827 144.066 49.3594C144.066 48.8624 144.28 48.5428 144.889 48.5428H146.107C148.649 48.5428 149.866 46.0572 149.866 44.8144C149.866 43.8557 148.971 44.0687 148.183 41.867C146.644 37.7127 143.385 27.344 143.385 26.0657C143.385 25.5331 143.851 25.0361 144.71 25.0361C145.354 25.0361 145.784 25.2136 145.999 26.1013C147.252 31.1081 148.613 36.1149 150.296 41.228C150.475 41.8315 150.725 41.867 150.904 41.867C151.083 41.867 151.298 41.8315 151.513 41.228C152.695 37.3576 154.986 29.2617 155.774 26.0657C155.988 25.1782 156.382 25.0361 156.991 25.0361C157.85 25.0361 158.28 25.5331 158.28 26.0657C158.28 27.4508 153.661 41.6185 152.623 44.4949C151.405 47.9747 149.973 50.5667 146.321 50.5667ZM47.6799 48.2968C50.4875 43.4036 52.5325 38.2074 54.4902 33.2055C55.4145 30.8434 56.3161 28.51 57.4195 26.2894C58.3322 24.453 59.4501 22.5964 61.117 21.2033C67.5955 24.5871 73.3194 29.3476 72.232 34.02C70.2629 42.4823 57.2941 48.1509 46.573 50.1253C46.9569 49.5228 47.3267 48.9123 47.6799 48.2968ZM34.2082 19.9962C31.6972 18.8489 32.4744 28.0869 34.6944 28.8806C37.0878 29.7366 47.0533 29.201 48.5652 29.1114C49.5118 29.0554 50.0013 27.212 50.0013 27.212C50.0013 27.212 35.4866 20.5805 34.2082 19.9962ZM55.7084 22.7695C53.4244 25.0297 51.7104 27.7549 50.2351 30.6068C45.3593 31.0041 28.1774 32.4046 25.3831 32.6325C21.3228 32.9632 27.932 41.2986 31.4169 40.8472C37.848 40.0132 44.8803 36.3832 48.4623 34.2781C48.3077 34.6157 48.1538 34.9535 48.0017 35.2901C45.8435 40.0633 43.8776 45.1955 41.0671 49.8839C40.8565 50.2352 40.6388 50.5811 40.4174 50.9238C33.4979 51.4286 28.3649 50.4448 26.0558 48.5594C19.5758 43.2691 17.8373 17.3806 25.1121 14.0502C30.1066 11.7639 45.9405 13.9619 59.1361 20.2187C57.8463 20.8858 56.6934 21.7947 55.7084 22.7695Z" fill="#AC1D1D"/>
</svg>
