<svg width="167" height="64" viewBox="0 0 167 64" fill="none" xmlns="http://www.w3.org/2000/svg">
<rect width="165.877" height="63" transform="translate(0.5 0.612)" fill="#2C2090"/>
<path d="M145.838 21.7193C144.771 21.1231 142.921 20.4522 140.771 20.646C138.305 20.8696 136.486 22.5243 136.095 24.9541C135.9 26.2212 135.9 27.1603 135.915 29.3963H134.186C133.93 29.3963 133.72 29.605 133.72 29.8585V32.81C133.72 33.0634 133.93 33.2721 134.186 33.2721H135.915V43.7516C135.915 43.9901 136.125 44.1988 136.366 44.1988H139.824C140.08 44.1988 140.275 43.9901 140.275 43.7516V33.2721H143.628C143.884 33.2721 144.094 33.0634 144.094 32.81V29.8585C144.094 29.605 143.884 29.3963 143.628 29.3963H140.29C140.29 28.4125 140.245 27.4883 140.305 26.564C140.365 25.6249 140.786 24.8647 141.764 24.5516C142.606 24.2833 143.433 24.4026 144.215 24.8199C144.771 25.133 144.921 25.0883 145.237 24.5367C145.688 23.7467 145.733 23.6572 146.184 22.8522C146.5 22.256 146.455 22.0622 145.838 21.7193Z" fill="white"/>
<path d="M69.0807 20.8398H65.848C65.5322 20.8398 65.2917 21.0932 65.2917 21.3914C65.2917 21.7193 65.5773 22.5541 65.6525 23.2249C65.6976 23.6125 65.7427 23.9255 65.7427 26.2361V43.7218C65.7427 43.9603 65.9382 44.169 66.1938 44.169H69.652C69.8926 44.169 70.1031 43.9603 70.1031 43.7218V21.8535C70.1031 21.287 69.652 20.8398 69.0807 20.8398Z" fill="white"/>
<path d="M130.893 20.8398H127.66C127.344 20.8398 127.104 21.0932 127.104 21.3914C127.104 21.7193 127.39 22.5541 127.465 23.2249C127.51 23.6125 127.555 23.9255 127.555 26.2361V43.7218C127.555 43.9603 127.75 44.169 128.006 44.169H131.464C131.705 44.169 131.915 43.9603 131.915 43.7218V21.8535C131.93 21.287 131.464 20.8398 130.893 20.8398Z" fill="white"/>
<path d="M80.7635 28.7106C76.0723 28.7106 72.6442 32.0349 72.6442 36.5814C72.6442 41.0982 76.1475 44.4522 80.8086 44.4224C85.4847 44.3926 88.9129 41.0684 88.8979 36.5516C88.8979 32.005 85.4847 28.7255 80.7635 28.7106ZM80.7785 40.7554C78.3578 40.7404 76.6136 39.0113 76.6136 36.5963C76.6136 34.1665 78.3728 32.3628 80.7785 32.3479C83.1843 32.3479 84.9284 34.1218 84.9284 36.5814C84.9134 39.0262 83.1993 40.7703 80.7785 40.7554Z" fill="white"/>
<path d="M36.9792 20.8547H33.521C33.2804 20.8547 33.0699 21.0634 33.0699 21.3019V30.5144H24.8604V21.3019C24.8604 21.0485 24.6649 20.8547 24.4093 20.8547H20.9511C20.7105 20.8547 20.5 21.0485 20.5 21.3019V24.7305V40.3231V43.7516C20.5 44.005 20.7105 44.1988 20.9511 44.1988H24.4093C24.6649 44.1988 24.8604 44.005 24.8604 43.7516V34.5392H33.0699V43.7516C33.0699 44.005 33.2804 44.1988 33.521 44.1988H36.9792C37.2348 44.1988 37.4303 44.005 37.4303 43.7516V40.3231V24.7305V21.3019C37.4303 21.0485 37.2198 20.8547 36.9792 20.8547Z" fill="white"/>
<path d="M61.4274 20.8398H58.1948C57.879 20.8398 57.6384 21.0932 57.6384 21.3914C57.6384 21.7193 57.9241 22.5541 57.9993 23.2249C58.0444 23.6125 58.0895 23.9255 58.0895 26.2361V43.7218C58.0895 43.9603 58.285 44.169 58.5406 44.169H61.9988C62.2394 44.169 62.4499 43.9603 62.4499 43.7218V21.8535C62.4499 21.287 61.9988 20.8398 61.4274 20.8398Z" fill="white"/>
<path d="M54.6613 39.5181C54.4809 39.3541 54.4208 39.2945 54.2403 39.1454C53.669 38.6386 53.5336 38.6684 52.9924 39.1752C50.9475 41.2473 46.4217 41.8734 44.7678 38.8473C44.9933 38.8026 49.91 37.7591 52.2105 37.2821C52.6014 37.1926 52.9924 37.1032 53.3683 36.9839C54.6162 36.6113 55.2327 35.8063 55.0222 34.5541C54.541 31.7367 52.4811 28.7255 48.0606 28.7255C43.3694 28.7255 39.9413 32.0498 39.9413 36.5963C39.9413 41.1131 43.4446 44.4373 48.1057 44.4373C50.8573 44.4373 53.5938 43.0808 54.8568 40.7703C55.2177 40.1442 55.1876 39.9802 54.6613 39.5181ZM50.8122 34.5839L44.1513 35.9852C43.8055 34.3603 45.0083 32.7206 46.8427 32.333C48.6771 31.9454 50.4513 32.9442 50.8122 34.5839Z" fill="white"/>
<path d="M124.157 39.4883C123.976 39.3243 123.916 39.2647 123.736 39.1156C123.164 38.6088 123.029 38.6386 122.488 39.1454C120.443 41.2175 115.917 41.8436 114.263 38.8175C114.489 38.7727 119.406 37.7293 121.706 37.2522C122.097 37.1628 122.488 37.0734 122.864 36.9541C124.112 36.5814 124.728 35.7765 124.518 34.5243C124.037 31.7069 121.977 28.6957 117.556 28.6957C112.865 28.6957 109.437 32.0199 109.437 36.5665C109.437 41.0833 112.94 44.4075 117.601 44.4075C120.353 44.4075 123.089 43.051 124.352 40.7404C124.713 40.1144 124.683 39.9653 124.157 39.4883ZM120.293 34.5541L113.632 35.9554C113.286 34.3305 114.489 32.6908 116.323 32.3032C118.173 31.9156 119.947 32.9293 120.293 34.5541Z" fill="white"/>
<path d="M98.8816 44.2286C96.1 44.2286 93.5589 43.1106 91.3186 40.8895C91.078 40.651 91.078 40.4572 91.2735 40.1889C91.469 39.9206 92.6117 38.415 92.9726 37.9231C93.1229 37.7442 93.2582 37.6547 93.3936 37.6547C93.5138 37.6547 93.6492 37.7144 93.8296 37.8485C94.01 37.9976 94.1754 38.1317 94.3558 38.2808C94.7468 38.6088 95.1377 38.9516 95.5737 39.2349C96.7014 39.9653 97.8592 40.3231 99.047 40.3231C99.6184 40.3231 100.205 40.2336 100.791 40.0547C102.265 39.6075 103.107 38.2212 102.701 36.8796C102.52 36.2833 102.024 35.7317 101.378 35.4038C100.656 35.046 100.009 34.733 99.3177 34.405C98.9267 34.2113 98.5208 34.0175 98.0847 33.8088C96.6413 33.1081 95.1227 32.333 93.7695 31.3342C92.2659 30.2162 91.469 28.6361 91.5141 26.892C91.5592 25.0286 92.5967 23.21 94.2055 22.1516C95.6189 21.2125 97.2427 20.7653 99.1673 20.7653C99.3477 20.7653 99.5282 20.7653 99.7086 20.7802C101.994 20.8696 104.099 21.6895 105.963 23.21C106.46 23.6125 106.49 23.7765 106.084 24.2833C105.873 24.5516 104.836 25.9081 104.52 26.3106C104.295 26.5939 104.159 26.7131 104.009 26.7131C103.889 26.7131 103.738 26.6386 103.498 26.4746C102.43 25.7442 101.137 24.9541 99.5282 24.7305C99.2876 24.7007 99.047 24.6858 98.8215 24.6858C98.19 24.6858 97.5885 24.8199 97.0473 25.0734C96.3255 25.4162 95.8444 26.0572 95.7542 26.8026C95.664 27.533 95.9647 28.2187 96.5811 28.6957C97.1675 29.1578 97.8441 29.4858 98.611 29.8286C98.8666 29.9479 99.1072 30.0522 99.3628 30.1715C100.942 30.8721 102.58 31.6175 104.039 32.5864C105.588 33.615 106.49 34.733 106.851 36.1193C107.602 38.9069 106.264 41.8137 103.603 43.1852C102.25 43.8858 100.761 44.2286 99.032 44.2286C99.047 44.2286 98.8816 44.2286 98.8816 44.2286Z" fill="white"/>
</svg>
