<svg width="145" height="64" viewBox="0 0 145 64" fill="none" xmlns="http://www.w3.org/2000/svg">
<path d="M87.2018 32.4812H88.1262V33.149C88.2722 32.918 88.4751 32.7278 88.7157 32.5963C88.9563 32.4649 89.2268 32.3966 89.5014 32.3978C89.7644 32.4044 90.0233 32.4643 90.2621 32.5739C90.5009 32.6835 90.7147 32.8405 90.8901 33.0352C91.0656 33.2299 91.1991 33.4582 91.2824 33.706C91.3658 33.9538 91.3972 34.216 91.3747 34.4763V34.4917C91.3972 34.752 91.3658 35.0142 91.2824 35.262C91.1991 35.5098 91.0656 35.7381 90.8901 35.9328C90.7147 36.1275 90.5009 36.2844 90.2621 36.3941C90.0233 36.5037 89.7644 36.5636 89.5014 36.5702C89.2315 36.5734 88.965 36.5107 88.7252 36.3876C88.4854 36.2646 88.2797 36.085 88.1262 35.8645V37.6999H87.2018V32.4812ZM90.4316 34.4917V34.4763C90.4449 34.316 90.4252 34.1547 90.3738 34.0021C90.3223 33.8496 90.2402 33.709 90.1323 33.589C90.0245 33.469 89.8932 33.372 89.7464 33.304C89.5996 33.236 89.4404 33.1983 89.2785 33.1933C89.1156 33.1982 88.9553 33.2356 88.8072 33.3033C88.6591 33.371 88.5262 33.4675 88.4164 33.5872C88.3066 33.7069 88.2222 33.8473 88.1681 34C88.114 34.1527 88.0914 34.3147 88.1016 34.4763V34.4917C88.0914 34.6533 88.114 34.8153 88.1681 34.968C88.2222 35.1207 88.3066 35.2611 88.4164 35.3808C88.5262 35.5005 88.6591 35.597 88.8072 35.6647C88.9553 35.7324 89.1156 35.7698 89.2785 35.7747C89.4411 35.7716 89.6012 35.7353 89.7489 35.6679C89.8966 35.6005 90.0288 35.5035 90.137 35.3831C90.2452 35.2627 90.3273 35.1213 90.378 34.9679C90.4287 34.8145 90.4469 34.6524 90.4316 34.4917Z" fill="#00A3C7"/>
<path d="M92.1034 34.5064V34.4917C92.1109 33.9316 92.3397 33.3969 92.7405 33.0028C93.1412 32.6086 93.6819 32.3866 94.2459 32.3846C94.8099 32.3826 95.3521 32.6007 95.7557 32.992C96.1593 33.3832 96.392 33.9163 96.4036 34.4763V34.4917C96.4025 34.7704 96.3455 35.0462 96.2357 35.3028C96.126 35.5593 95.9657 35.7915 95.7644 35.9858C95.5631 36.18 95.3248 36.3324 95.0634 36.434C94.802 36.5355 94.5228 36.5842 94.2422 36.5772C93.9639 36.5843 93.687 36.5359 93.4278 36.435C93.1687 36.3341 92.9325 36.1827 92.7332 35.9897C92.5338 35.7967 92.3754 35.566 92.2673 35.3113C92.1591 35.0566 92.1034 34.7829 92.1034 34.5064ZM95.4792 34.5064V34.4917C95.4862 34.3256 95.4595 34.1598 95.4006 34.0042C95.3417 33.8485 95.2519 33.7063 95.1364 33.5859C95.021 33.4655 94.8823 33.3694 94.7287 33.3034C94.575 33.2374 94.4096 33.2028 94.2422 33.2016C94.0765 33.2008 93.9125 33.2337 93.7602 33.2984C93.6079 33.3631 93.4706 33.4581 93.3568 33.5776C93.2429 33.697 93.155 33.8385 93.0984 33.993C93.0418 34.1476 93.0178 34.3121 93.0278 34.4763V34.4917C93.0212 34.6565 93.048 34.821 93.1065 34.9754C93.165 35.1298 93.2542 35.271 93.3686 35.3906C93.483 35.5102 93.6204 35.6059 93.7727 35.6718C93.9249 35.7378 94.089 35.7728 94.2551 35.7747C94.421 35.7769 94.5856 35.7452 94.7386 35.6815C94.8916 35.6179 95.0298 35.5237 95.1446 35.4047C95.2594 35.2858 95.3484 35.1446 95.4059 34.9901C95.4635 34.8356 95.4884 34.671 95.4792 34.5064Z" fill="#00A3C7"/>
<path d="M96.5107 32.4812H97.4577L98.2671 35.2275L99.1605 32.469H99.955L100.849 35.2307L101.673 32.4844H102.605L101.284 36.5195H100.452L99.5474 33.7815L98.6392 36.5195H97.8143L96.5107 32.4812Z" fill="#00A3C7"/>
<path d="M103.01 34.4988V34.484C102.997 34.2174 103.038 33.9509 103.13 33.7003C103.223 33.4497 103.366 33.2203 103.549 33.0256C103.733 32.8309 103.955 32.675 104.201 32.5672C104.447 32.4593 104.712 32.4017 104.981 32.3978C106.263 32.3978 106.913 33.3992 106.913 34.552C106.913 34.6354 106.905 34.7188 106.898 34.8086H103.932C103.958 35.0937 104.093 35.358 104.309 35.5472C104.526 35.7363 104.807 35.8359 105.095 35.8254C105.301 35.8265 105.504 35.7844 105.692 35.7021C105.881 35.6197 106.049 35.4989 106.187 35.3475L106.73 35.8254C106.532 36.0684 106.28 36.2627 105.994 36.3929C105.707 36.5231 105.395 36.5858 105.08 36.576C104.804 36.5841 104.529 36.5358 104.273 36.434C104.017 36.3322 103.784 36.1791 103.59 35.9843C103.396 35.7895 103.244 35.557 103.144 35.3015C103.045 35.0459 102.999 34.7727 103.01 34.4988ZM105.997 34.203C106 33.9287 105.895 33.6641 105.703 33.4667C105.512 33.2693 105.249 33.1551 104.973 33.149C104.696 33.1602 104.434 33.2752 104.24 33.4709C104.046 33.6666 103.934 33.9283 103.926 34.203H105.997Z" fill="#00A3C7"/>
<path d="M107.844 32.4812H108.768V33.3838C108.866 33.0878 109.058 32.8318 109.316 32.655C109.574 32.4783 109.884 32.3906 110.197 32.4055V33.3761H110.144C109.334 33.3761 108.768 33.8996 108.768 34.9619V36.4862H107.844V32.4812Z" fill="#00A3C7"/>
<path d="M111.015 30.9948H112.007V31.8666H111.014L111.015 30.9948ZM111.053 32.4812H111.976V36.4861H111.053V32.4812Z" fill="#00A3C7"/>
<path d="M113.183 32.4812H114.107V33.0958C114.238 32.8811 114.423 32.7039 114.644 32.5813C114.864 32.4588 115.113 32.3951 115.366 32.3965C115.566 32.3874 115.766 32.4217 115.952 32.4971C116.137 32.5724 116.304 32.6869 116.441 32.8327C116.578 32.9785 116.681 33.1521 116.743 33.3415C116.805 33.5308 116.825 33.7313 116.802 33.9291V36.4849H115.883V34.2107C115.883 33.5885 115.569 33.2324 115.02 33.2324C114.892 33.2298 114.764 33.2545 114.647 33.3048C114.529 33.3551 114.424 33.4298 114.338 33.524C114.251 33.6181 114.187 33.7295 114.148 33.8506C114.108 33.9717 114.096 34.0998 114.111 34.2261V36.4862H113.186L113.183 32.4812Z" fill="#00A3C7"/>
<path d="M117.911 37.2374L118.254 36.5471C118.682 36.8232 119.181 36.9707 119.69 36.9718C119.86 36.9951 120.033 36.9797 120.196 36.9267C120.359 36.8738 120.507 36.7847 120.63 36.6662C120.753 36.5477 120.847 36.4029 120.905 36.2429C120.963 36.0829 120.984 35.9118 120.966 35.7426V35.4321C120.809 35.6621 120.597 35.8497 120.349 35.9782C120.1 36.1066 119.824 36.1718 119.544 36.168C119.298 36.171 119.054 36.1241 118.827 36.0303C118.599 35.9365 118.394 35.7977 118.222 35.6224C118.051 35.4471 117.917 35.2389 117.829 35.0105C117.741 34.7821 117.701 34.5384 117.711 34.2941V34.2794C117.701 34.0345 117.741 33.7902 117.828 33.5611C117.916 33.332 118.05 33.1231 118.221 32.947C118.393 32.7708 118.599 32.6312 118.826 32.5366C119.054 32.442 119.298 32.3943 119.545 32.3965C119.818 32.3925 120.088 32.4522 120.334 32.5707C120.579 32.6893 120.793 32.8634 120.958 33.0791V32.4799H121.883V35.6682C121.903 35.9411 121.869 36.2152 121.781 36.4745C121.693 36.7338 121.553 36.9729 121.371 37.1777C121.144 37.3716 120.881 37.519 120.596 37.6115C120.312 37.704 120.012 37.7397 119.714 37.7166C119.08 37.7231 118.457 37.5574 117.911 37.2374ZM120.973 34.2864V34.2717C120.971 34.1214 120.938 33.9732 120.877 33.8358C120.816 33.6985 120.727 33.5748 120.617 33.4721C120.506 33.3694 120.376 33.2899 120.234 33.2382C120.092 33.1866 119.941 33.1639 119.79 33.1715C119.641 33.1638 119.491 33.1867 119.351 33.2388C119.211 33.2908 119.084 33.371 118.976 33.4742C118.869 33.5774 118.784 33.7014 118.727 33.8386C118.669 33.9758 118.641 34.1232 118.644 34.2717V34.2864C118.643 34.4345 118.671 34.5814 118.729 34.718C118.787 34.8546 118.872 34.9782 118.979 35.0811C119.086 35.1841 119.213 35.2643 119.353 35.3168C119.492 35.3693 119.641 35.3931 119.79 35.3866C119.941 35.3942 120.092 35.3715 120.234 35.3199C120.376 35.2682 120.506 35.1887 120.617 35.086C120.727 34.9833 120.816 34.8596 120.877 34.7222C120.938 34.5849 120.971 34.4366 120.973 34.2864Z" fill="#00A3C7"/>
<path d="M87.2018 40.3698H88.1262V41.0377C88.2722 40.8068 88.4752 40.6167 88.7158 40.4853C88.9564 40.354 89.2268 40.2858 89.5014 40.2871C89.7644 40.2937 90.0233 40.3536 90.2621 40.4632C90.5009 40.5728 90.7147 40.7298 90.8901 40.9245C91.0656 41.1192 91.1991 41.3475 91.2824 41.5953C91.3658 41.8431 91.3972 42.1053 91.3747 42.3656V42.3803C91.3972 42.6407 91.3658 42.9028 91.2824 43.1506C91.1991 43.3985 91.0656 43.6267 90.8901 43.8214C90.7147 44.0161 90.5009 44.1731 90.2621 44.2827C90.0233 44.3923 89.7644 44.4523 89.5014 44.4588C89.2315 44.4621 88.9649 44.3995 88.7251 44.2764C88.4853 44.1534 88.2796 43.9737 88.1262 43.7532V45.5892H87.2018V40.3698ZM90.4316 42.3803V42.3656C90.4449 42.2053 90.4252 42.0439 90.3738 41.8914C90.3223 41.7389 90.2402 41.5983 90.1323 41.4783C90.0245 41.3583 89.8932 41.2613 89.7464 41.1933C89.5996 41.1253 89.4404 41.0876 89.2785 41.0826C89.1156 41.0875 88.9553 41.1249 88.8072 41.1926C88.6591 41.2602 88.5262 41.3568 88.4164 41.4765C88.3066 41.5962 88.2222 41.7365 88.1681 41.8893C88.114 42.042 88.0914 42.204 88.1016 42.3656V42.3803C88.0914 42.5419 88.114 42.7039 88.1681 42.8566C88.2222 43.0094 88.3066 43.1498 88.4164 43.2694C88.5262 43.3891 88.6591 43.4857 88.8072 43.5533C88.9553 43.621 89.1156 43.6584 89.2785 43.6634C89.4411 43.6603 89.6012 43.6239 89.7489 43.5565C89.8966 43.4891 90.0288 43.3922 90.137 43.2717C90.2452 43.1513 90.3273 43.01 90.378 42.8566C90.4287 42.7032 90.4469 42.5411 90.4316 42.3803Z" fill="#00A3C7"/>
<path d="M91.7979 42.3957V42.3803C91.8055 41.8203 92.0344 41.2856 92.4352 40.8916C92.836 40.4975 93.3766 40.2756 93.9406 40.2737C94.5046 40.2717 95.0468 40.4899 95.4504 40.8812C95.8539 41.2725 96.0865 41.8056 96.098 42.3656V42.3803C96.0971 42.6591 96.0401 42.935 95.9304 43.1916C95.8206 43.4482 95.6604 43.6805 95.4591 43.8748C95.2578 44.0692 95.0194 44.2216 94.758 44.3232C94.4965 44.4248 94.2173 44.4735 93.9366 44.4665C93.6583 44.4735 93.3815 44.4252 93.1223 44.3243C92.8631 44.2234 92.6269 44.0719 92.4276 43.879C92.2283 43.686 92.0699 43.4553 91.9617 43.2006C91.8536 42.9458 91.7978 42.6722 91.7979 42.3957ZM95.1737 42.3957V42.3803C95.1807 42.2143 95.154 42.0485 95.0951 41.8929C95.0362 41.7373 94.9463 41.5951 94.8308 41.4748C94.7154 41.3544 94.5767 41.2584 94.4231 41.1924C94.2694 41.1265 94.104 41.092 93.9366 41.0909C93.7709 41.09 93.6068 41.1229 93.4545 41.1875C93.3021 41.2521 93.1647 41.3471 93.0508 41.4666C92.9369 41.5861 92.8489 41.7275 92.7923 41.8822C92.7356 42.0368 92.7116 42.2013 92.7216 42.3656V42.3803C92.715 42.5452 92.7418 42.7097 92.8003 42.8641C92.8588 43.0185 92.948 43.1597 93.0624 43.2793C93.1768 43.3989 93.3142 43.4945 93.4665 43.5605C93.6188 43.6264 93.7828 43.6614 93.9489 43.6634C94.1148 43.6656 94.2794 43.634 94.4324 43.5704C94.5855 43.5068 94.7237 43.4127 94.8386 43.2938C94.9535 43.1749 95.0425 43.0339 95.1001 42.8794C95.1578 42.7249 95.1828 42.5602 95.1737 42.3957Z" fill="#00A3C7"/>
<path d="M96.4028 43.852L96.8156 43.2297C97.1923 43.5288 97.6548 43.7015 98.1366 43.723C98.5339 43.723 98.7632 43.5562 98.7632 43.2906V43.2752C98.7632 42.9648 98.3356 42.8583 97.8621 42.7139C97.2665 42.5471 96.6018 42.3046 96.6018 41.538V41.5233C96.6088 41.3473 96.6523 41.1746 96.7297 41.016C96.8071 40.8575 96.9167 40.7166 97.0515 40.6021C97.1864 40.4877 97.3436 40.4022 97.5133 40.3509C97.683 40.2997 97.8616 40.2838 98.0378 40.3044C98.565 40.3144 99.0787 40.472 99.5196 40.7592L99.1521 41.4097C98.8126 41.1871 98.4205 41.0562 98.0145 41.03C97.6554 41.03 97.4493 41.1974 97.4493 41.4245V41.4418C97.4493 41.7375 97.884 41.8588 98.3575 42.0108C98.946 42.1924 99.6107 42.4599 99.6107 43.179V43.1938C99.6107 44.0361 98.9537 44.4531 98.1133 44.4531C97.4922 44.4443 96.8913 44.2331 96.4028 43.852Z" fill="#00A3C7"/>
<path d="M100.153 43.852L100.566 43.2297C100.943 43.5288 101.405 43.7016 101.887 43.723C102.284 43.723 102.514 43.5562 102.514 43.2906V43.2752C102.514 42.9648 102.086 42.8583 101.609 42.7139C101.013 42.5471 100.349 42.3046 100.349 41.538V41.5233C100.356 41.3472 100.399 41.1745 100.477 41.0159C100.554 40.8573 100.664 40.7164 100.799 40.6019C100.933 40.4874 101.091 40.4019 101.26 40.3507C101.43 40.2995 101.609 40.2838 101.785 40.3044C102.312 40.3145 102.826 40.4721 103.267 40.7592L102.9 41.4123C102.56 41.1895 102.168 41.0586 101.762 41.0325C101.403 41.0325 101.197 41.2 101.197 41.4271V41.4418C101.197 41.7375 101.632 41.8588 102.105 42.0108C102.694 42.1924 103.358 42.4599 103.358 43.179V43.1938C103.358 44.0361 102.702 44.4531 101.861 44.4531C101.241 44.4439 100.641 44.2327 100.153 43.852Z" fill="#00A3C7"/>
<path d="M104.171 38.8835H105.164V39.7559H104.171V38.8835ZM104.209 40.3698H105.133V44.3754H104.209V40.3698Z" fill="#00A3C7"/>
<path d="M107.112 43.7512V44.3735H106.187V38.8379H107.112V41.0377C107.258 40.8068 107.46 40.6168 107.701 40.4855C107.942 40.3542 108.212 40.2859 108.486 40.2871C108.749 40.2937 109.008 40.3536 109.247 40.4632C109.486 40.5728 109.699 40.7298 109.875 40.9245C110.05 41.1192 110.184 41.3475 110.267 41.5953C110.351 41.8431 110.382 42.1053 110.36 42.3656V42.3803C110.382 42.6406 110.35 42.9027 110.267 43.1505C110.184 43.3983 110.05 43.6266 109.875 43.8212C109.699 44.0159 109.486 44.1729 109.247 44.2825C109.008 44.3922 108.749 44.4522 108.486 44.4588C108.216 44.462 107.95 44.3991 107.71 44.2756C107.47 44.1522 107.265 43.9721 107.112 43.7512ZM109.418 42.3784V42.3656C109.431 42.2052 109.412 42.0439 109.36 41.8913C109.309 41.7387 109.227 41.5982 109.119 41.4781C109.011 41.3581 108.879 41.2611 108.733 41.1931C108.586 41.1251 108.427 41.0875 108.265 41.0826C108.102 41.0875 107.941 41.1249 107.793 41.1926C107.645 41.2602 107.512 41.3568 107.403 41.4765C107.293 41.5962 107.209 41.7366 107.155 41.8893C107.101 42.0421 107.078 42.204 107.088 42.3656V42.3803C107.078 42.5419 107.101 42.7039 107.155 42.8566C107.209 43.0093 107.293 43.1497 107.403 43.2694C107.512 43.3891 107.645 43.4857 107.793 43.5533C107.941 43.621 108.102 43.6584 108.265 43.6634C108.427 43.6604 108.587 43.6241 108.735 43.5567C108.883 43.4894 109.015 43.3924 109.123 43.2719C109.232 43.1515 109.314 43.0101 109.364 42.8567C109.415 42.7032 109.433 42.5411 109.418 42.3803V42.3784Z" fill="#00A3C7"/>
<path d="M111.022 38.8835H112.014V39.7559H111.022V38.8835ZM111.06 40.3698H111.984V44.3754H111.06V40.3698Z" fill="#00A3C7"/>
<path d="M113.091 38.8379H114.016V44.3754H113.091V38.8379Z" fill="#00A3C7"/>
<path d="M115.237 38.8835H116.229V39.7559H115.237V38.8835ZM115.275 40.3698H116.198V44.3754H115.275V40.3698Z" fill="#00A3C7"/>
<path d="M117.445 43.2675V41.1589H116.933V40.3698H117.445V39.2703H118.369V40.3698H119.453V41.1589H118.369V43.1238C118.358 43.1914 118.364 43.2604 118.385 43.3255C118.406 43.3905 118.442 43.4498 118.49 43.4985C118.538 43.5471 118.598 43.5839 118.663 43.6057C118.728 43.6275 118.797 43.6339 118.866 43.6242C119.065 43.625 119.261 43.5781 119.439 43.4876V44.2388C119.185 44.3811 118.897 44.4518 118.606 44.4434C118.446 44.4651 118.284 44.4493 118.131 44.3975C117.979 44.3457 117.841 44.2592 117.728 44.145C117.615 44.0308 117.531 43.8919 117.482 43.7396C117.433 43.5872 117.42 43.4256 117.445 43.2675Z" fill="#00A3C7"/>
<path d="M123.188 40.3698H124.151L122.547 44.489C122.224 45.3082 121.867 45.6116 121.218 45.6116C120.883 45.6152 120.554 45.5316 120.263 45.3691L120.576 44.6866C120.741 44.7811 120.928 44.8332 121.119 44.838C121.377 44.838 121.539 44.7244 121.692 44.3831L120.012 40.3698H121.005L122.143 43.3439L123.188 40.3698Z" fill="#00A3C7"/>
<path d="M87.2018 32.4812H88.1262V33.149C88.2722 32.918 88.4751 32.7278 88.7157 32.5963C88.9563 32.4649 89.2268 32.3966 89.5014 32.3978C89.7644 32.4044 90.0233 32.4643 90.2621 32.5739C90.5009 32.6835 90.7147 32.8405 90.8901 33.0352C91.0656 33.2299 91.1991 33.4582 91.2824 33.706C91.3658 33.9538 91.3972 34.216 91.3747 34.4763V34.4917C91.3972 34.752 91.3658 35.0142 91.2824 35.262C91.1991 35.5098 91.0656 35.7381 90.8901 35.9328C90.7147 36.1275 90.5009 36.2844 90.2621 36.3941C90.0233 36.5037 89.7644 36.5636 89.5014 36.5702C89.2315 36.5734 88.965 36.5107 88.7252 36.3876C88.4854 36.2646 88.2797 36.085 88.1262 35.8645V37.6999H87.2018V32.4812ZM90.4316 34.4917V34.4763C90.4449 34.316 90.4252 34.1547 90.3738 34.0021C90.3223 33.8496 90.2402 33.709 90.1323 33.589C90.0245 33.469 89.8932 33.372 89.7464 33.304C89.5996 33.236 89.4404 33.1983 89.2785 33.1933C89.1156 33.1982 88.9553 33.2356 88.8072 33.3033C88.6591 33.371 88.5262 33.4675 88.4164 33.5872C88.3066 33.7069 88.2222 33.8473 88.1681 34C88.114 34.1527 88.0914 34.3147 88.1016 34.4763V34.4917C88.0914 34.6533 88.114 34.8153 88.1681 34.968C88.2222 35.1207 88.3066 35.2611 88.4164 35.3808C88.5262 35.5005 88.6591 35.597 88.8072 35.6647C88.9553 35.7324 89.1156 35.7698 89.2785 35.7747C89.4411 35.7716 89.6012 35.7353 89.7489 35.6679C89.8966 35.6005 90.0288 35.5035 90.137 35.3831C90.2452 35.2627 90.3273 35.1213 90.378 34.9679C90.4287 34.8145 90.4469 34.6524 90.4316 34.4917Z" fill="#00A3C7"/>
<path d="M92.1034 34.5064V34.4917C92.1109 33.9316 92.3397 33.3969 92.7405 33.0028C93.1412 32.6086 93.6819 32.3866 94.2459 32.3846C94.8099 32.3826 95.3521 32.6007 95.7557 32.992C96.1593 33.3832 96.392 33.9163 96.4036 34.4763V34.4917C96.4025 34.7704 96.3455 35.0462 96.2357 35.3028C96.126 35.5593 95.9657 35.7915 95.7644 35.9858C95.5631 36.18 95.3248 36.3324 95.0634 36.434C94.802 36.5355 94.5228 36.5842 94.2422 36.5772C93.9639 36.5843 93.687 36.5359 93.4278 36.435C93.1687 36.3341 92.9325 36.1827 92.7332 35.9897C92.5338 35.7967 92.3754 35.566 92.2673 35.3113C92.1591 35.0566 92.1034 34.7829 92.1034 34.5064ZM95.4792 34.5064V34.4917C95.4862 34.3256 95.4595 34.1598 95.4006 34.0042C95.3417 33.8485 95.2519 33.7063 95.1364 33.5859C95.021 33.4655 94.8823 33.3694 94.7287 33.3034C94.575 33.2374 94.4096 33.2028 94.2422 33.2016C94.0765 33.2008 93.9125 33.2337 93.7602 33.2984C93.6079 33.3631 93.4706 33.4581 93.3568 33.5776C93.2429 33.697 93.155 33.8385 93.0984 33.993C93.0418 34.1476 93.0178 34.3121 93.0278 34.4763V34.4917C93.0212 34.6565 93.048 34.821 93.1065 34.9754C93.165 35.1298 93.2542 35.271 93.3686 35.3906C93.483 35.5102 93.6204 35.6059 93.7727 35.6718C93.9249 35.7378 94.089 35.7728 94.2551 35.7747C94.421 35.7769 94.5856 35.7452 94.7386 35.6815C94.8916 35.6179 95.0298 35.5237 95.1446 35.4047C95.2594 35.2858 95.3484 35.1446 95.4059 34.9901C95.4635 34.8356 95.4884 34.671 95.4792 34.5064Z" fill="#00A3C7"/>
<path d="M96.5107 32.4812H97.4577L98.2671 35.2275L99.1605 32.469H99.955L100.849 35.2307L101.673 32.4844H102.605L101.284 36.5195H100.452L99.5474 33.7815L98.6392 36.5195H97.8143L96.5107 32.4812Z" fill="#00A3C7"/>
<path d="M103.01 34.4988V34.484C102.997 34.2174 103.038 33.9509 103.13 33.7003C103.223 33.4497 103.366 33.2203 103.549 33.0256C103.733 32.8309 103.955 32.675 104.201 32.5672C104.447 32.4593 104.712 32.4017 104.981 32.3978C106.263 32.3978 106.913 33.3992 106.913 34.552C106.913 34.6354 106.905 34.7188 106.898 34.8086H103.932C103.958 35.0937 104.093 35.358 104.309 35.5472C104.526 35.7363 104.807 35.8359 105.095 35.8254C105.301 35.8265 105.504 35.7844 105.692 35.7021C105.881 35.6197 106.049 35.4989 106.187 35.3475L106.73 35.8254C106.532 36.0684 106.28 36.2627 105.994 36.3929C105.707 36.5231 105.395 36.5858 105.08 36.576C104.804 36.5841 104.529 36.5358 104.273 36.434C104.017 36.3322 103.784 36.1791 103.59 35.9843C103.396 35.7895 103.244 35.557 103.144 35.3015C103.045 35.0459 102.999 34.7727 103.01 34.4988ZM105.997 34.203C106 33.9287 105.895 33.6641 105.703 33.4667C105.512 33.2693 105.249 33.1551 104.973 33.149C104.696 33.1602 104.434 33.2752 104.24 33.4709C104.046 33.6666 103.934 33.9283 103.926 34.203H105.997Z" fill="#00A3C7"/>
<path d="M107.844 32.4812H108.768V33.3838C108.866 33.0878 109.058 32.8318 109.316 32.655C109.574 32.4783 109.884 32.3906 110.197 32.4055V33.3761H110.144C109.334 33.3761 108.768 33.8996 108.768 34.9619V36.4862H107.844V32.4812Z" fill="#00A3C7"/>
<path d="M111.015 30.9948H112.007V31.8666H111.014L111.015 30.9948ZM111.053 32.4812H111.976V36.4861H111.053V32.4812Z" fill="#00A3C7"/>
<path d="M113.183 32.4812H114.107V33.0958C114.238 32.8811 114.423 32.7039 114.644 32.5813C114.864 32.4588 115.113 32.3951 115.366 32.3965C115.566 32.3874 115.766 32.4217 115.952 32.4971C116.137 32.5724 116.304 32.6869 116.441 32.8327C116.578 32.9785 116.681 33.1521 116.743 33.3415C116.805 33.5308 116.825 33.7313 116.802 33.9291V36.4849H115.883V34.2107C115.883 33.5885 115.569 33.2324 115.02 33.2324C114.892 33.2298 114.764 33.2545 114.647 33.3048C114.529 33.3551 114.424 33.4298 114.338 33.524C114.251 33.6181 114.187 33.7295 114.148 33.8506C114.108 33.9717 114.096 34.0998 114.111 34.2261V36.4862H113.186L113.183 32.4812Z" fill="#00A3C7"/>
<path d="M117.911 37.2374L118.254 36.5471C118.682 36.8232 119.181 36.9707 119.69 36.9718C119.86 36.9951 120.033 36.9797 120.196 36.9267C120.359 36.8738 120.507 36.7847 120.63 36.6662C120.753 36.5477 120.847 36.4029 120.905 36.2429C120.963 36.0829 120.984 35.9118 120.966 35.7426V35.4321C120.809 35.6621 120.597 35.8497 120.349 35.9782C120.1 36.1066 119.824 36.1718 119.544 36.168C119.298 36.171 119.054 36.1241 118.827 36.0303C118.599 35.9365 118.394 35.7977 118.222 35.6224C118.051 35.4471 117.917 35.2389 117.829 35.0105C117.741 34.7821 117.701 34.5384 117.711 34.2941V34.2794C117.701 34.0345 117.741 33.7902 117.828 33.5611C117.916 33.332 118.05 33.1231 118.221 32.947C118.393 32.7708 118.599 32.6312 118.826 32.5366C119.054 32.442 119.298 32.3943 119.545 32.3965C119.818 32.3925 120.088 32.4522 120.334 32.5707C120.579 32.6893 120.793 32.8634 120.958 33.0791V32.4799H121.883V35.6682C121.903 35.9411 121.869 36.2152 121.781 36.4745C121.693 36.7338 121.553 36.9729 121.371 37.1777C121.144 37.3716 120.881 37.519 120.596 37.6115C120.312 37.704 120.012 37.7397 119.714 37.7166C119.08 37.7231 118.457 37.5574 117.911 37.2374ZM120.973 34.2864V34.2717C120.971 34.1214 120.938 33.9732 120.877 33.8358C120.816 33.6985 120.727 33.5748 120.617 33.4721C120.506 33.3694 120.376 33.2899 120.234 33.2382C120.092 33.1866 119.941 33.1639 119.79 33.1715C119.641 33.1638 119.491 33.1867 119.351 33.2388C119.211 33.2908 119.084 33.371 118.976 33.4742C118.869 33.5774 118.784 33.7014 118.727 33.8386C118.669 33.9758 118.641 34.1232 118.644 34.2717V34.2864C118.643 34.4345 118.671 34.5814 118.729 34.718C118.787 34.8546 118.872 34.9782 118.979 35.0811C119.086 35.1841 119.213 35.2643 119.353 35.3168C119.492 35.3693 119.641 35.3931 119.79 35.3866C119.941 35.3942 120.092 35.3715 120.234 35.3199C120.376 35.2682 120.506 35.1887 120.617 35.086C120.727 34.9833 120.816 34.8596 120.877 34.7222C120.938 34.5849 120.971 34.4366 120.973 34.2864Z" fill="#00A3C7"/>
<path d="M87.2018 40.3698H88.1262V41.0377C88.2722 40.8068 88.4752 40.6167 88.7158 40.4853C88.9564 40.354 89.2268 40.2858 89.5014 40.2871C89.7644 40.2937 90.0233 40.3536 90.2621 40.4632C90.5009 40.5728 90.7147 40.7298 90.8901 40.9245C91.0656 41.1192 91.1991 41.3475 91.2824 41.5953C91.3658 41.8431 91.3972 42.1053 91.3747 42.3656V42.3803C91.3972 42.6407 91.3658 42.9028 91.2824 43.1506C91.1991 43.3985 91.0656 43.6267 90.8901 43.8214C90.7147 44.0161 90.5009 44.1731 90.2621 44.2827C90.0233 44.3923 89.7644 44.4523 89.5014 44.4588C89.2315 44.4621 88.9649 44.3995 88.7251 44.2764C88.4853 44.1534 88.2796 43.9737 88.1262 43.7532V45.5892H87.2018V40.3698ZM90.4316 42.3803V42.3656C90.4449 42.2053 90.4252 42.0439 90.3738 41.8914C90.3223 41.7389 90.2402 41.5983 90.1323 41.4783C90.0245 41.3583 89.8932 41.2613 89.7464 41.1933C89.5996 41.1253 89.4404 41.0876 89.2785 41.0826C89.1156 41.0875 88.9553 41.1249 88.8072 41.1926C88.6591 41.2602 88.5262 41.3568 88.4164 41.4765C88.3066 41.5962 88.2222 41.7365 88.1681 41.8893C88.114 42.042 88.0914 42.204 88.1016 42.3656V42.3803C88.0914 42.5419 88.114 42.7039 88.1681 42.8566C88.2222 43.0094 88.3066 43.1498 88.4164 43.2694C88.5262 43.3891 88.6591 43.4857 88.8072 43.5533C88.9553 43.621 89.1156 43.6584 89.2785 43.6634C89.4411 43.6603 89.6012 43.6239 89.7489 43.5565C89.8966 43.4891 90.0288 43.3922 90.137 43.2717C90.2452 43.1513 90.3273 43.01 90.378 42.8566C90.4287 42.7032 90.4469 42.5411 90.4316 42.3803Z" fill="#00A3C7"/>
<path d="M91.7979 42.3957V42.3803C91.8055 41.8203 92.0344 41.2856 92.4352 40.8916C92.836 40.4975 93.3766 40.2756 93.9406 40.2737C94.5046 40.2717 95.0468 40.4899 95.4504 40.8812C95.8539 41.2725 96.0865 41.8056 96.098 42.3656V42.3803C96.0971 42.6591 96.0401 42.935 95.9304 43.1916C95.8206 43.4482 95.6604 43.6805 95.4591 43.8748C95.2578 44.0692 95.0194 44.2216 94.758 44.3232C94.4965 44.4248 94.2173 44.4735 93.9366 44.4665C93.6583 44.4735 93.3815 44.4252 93.1223 44.3243C92.8631 44.2234 92.6269 44.0719 92.4276 43.879C92.2283 43.686 92.0699 43.4553 91.9617 43.2006C91.8536 42.9458 91.7978 42.6722 91.7979 42.3957ZM95.1737 42.3957V42.3803C95.1807 42.2143 95.154 42.0485 95.0951 41.8929C95.0362 41.7373 94.9463 41.5951 94.8308 41.4748C94.7154 41.3544 94.5767 41.2584 94.4231 41.1924C94.2694 41.1265 94.104 41.092 93.9366 41.0909C93.7709 41.09 93.6068 41.1229 93.4545 41.1875C93.3021 41.2521 93.1647 41.3471 93.0508 41.4666C92.9369 41.5861 92.8489 41.7275 92.7923 41.8822C92.7356 42.0368 92.7116 42.2013 92.7216 42.3656V42.3803C92.715 42.5452 92.7418 42.7097 92.8003 42.8641C92.8588 43.0185 92.948 43.1597 93.0624 43.2793C93.1768 43.3989 93.3142 43.4945 93.4665 43.5605C93.6188 43.6264 93.7828 43.6614 93.9489 43.6634C94.1148 43.6656 94.2794 43.634 94.4324 43.5704C94.5855 43.5068 94.7237 43.4127 94.8386 43.2938C94.9535 43.1749 95.0425 43.0339 95.1001 42.8794C95.1578 42.7249 95.1828 42.5602 95.1737 42.3957Z" fill="#00A3C7"/>
<path d="M96.4028 43.852L96.8156 43.2297C97.1923 43.5288 97.6548 43.7015 98.1366 43.723C98.5339 43.723 98.7632 43.5562 98.7632 43.2906V43.2752C98.7632 42.9648 98.3356 42.8583 97.8621 42.7139C97.2665 42.5471 96.6018 42.3046 96.6018 41.538V41.5233C96.6088 41.3473 96.6523 41.1746 96.7297 41.016C96.8071 40.8575 96.9167 40.7166 97.0515 40.6021C97.1864 40.4877 97.3436 40.4022 97.5133 40.3509C97.683 40.2997 97.8616 40.2838 98.0378 40.3044C98.565 40.3144 99.0787 40.472 99.5196 40.7592L99.1521 41.4097C98.8126 41.1871 98.4205 41.0562 98.0145 41.03C97.6554 41.03 97.4493 41.1974 97.4493 41.4245V41.4418C97.4493 41.7375 97.884 41.8588 98.3575 42.0108C98.946 42.1924 99.6107 42.4599 99.6107 43.179V43.1938C99.6107 44.0361 98.9537 44.4531 98.1133 44.4531C97.4922 44.4443 96.8913 44.2331 96.4028 43.852Z" fill="#00A3C7"/>
<path d="M100.153 43.852L100.566 43.2297C100.943 43.5288 101.405 43.7016 101.887 43.723C102.284 43.723 102.514 43.5562 102.514 43.2906V43.2752C102.514 42.9648 102.086 42.8583 101.609 42.7139C101.013 42.5471 100.349 42.3046 100.349 41.538V41.5233C100.356 41.3472 100.399 41.1745 100.477 41.0159C100.554 40.8573 100.664 40.7164 100.799 40.6019C100.933 40.4874 101.091 40.4019 101.26 40.3507C101.43 40.2995 101.609 40.2838 101.785 40.3044C102.312 40.3145 102.826 40.4721 103.267 40.7592L102.9 41.4123C102.56 41.1895 102.168 41.0586 101.762 41.0325C101.403 41.0325 101.197 41.2 101.197 41.4271V41.4418C101.197 41.7375 101.632 41.8588 102.105 42.0108C102.694 42.1924 103.358 42.4599 103.358 43.179V43.1938C103.358 44.0361 102.702 44.4531 101.861 44.4531C101.241 44.4439 100.641 44.2327 100.153 43.852Z" fill="#00A3C7"/>
<path d="M104.171 38.8835H105.164V39.7559H104.171V38.8835ZM104.209 40.3698H105.133V44.3754H104.209V40.3698Z" fill="#00A3C7"/>
<path d="M107.112 43.7512V44.3735H106.187V38.8379H107.112V41.0377C107.258 40.8068 107.46 40.6168 107.701 40.4855C107.942 40.3542 108.212 40.2859 108.486 40.2871C108.749 40.2937 109.008 40.3536 109.247 40.4632C109.486 40.5728 109.699 40.7298 109.875 40.9245C110.05 41.1192 110.184 41.3475 110.267 41.5953C110.351 41.8431 110.382 42.1053 110.36 42.3656V42.3803C110.382 42.6406 110.35 42.9027 110.267 43.1505C110.184 43.3983 110.05 43.6266 109.875 43.8212C109.699 44.0159 109.486 44.1729 109.247 44.2825C109.008 44.3922 108.749 44.4522 108.486 44.4588C108.216 44.462 107.95 44.3991 107.71 44.2756C107.47 44.1522 107.265 43.9721 107.112 43.7512ZM109.418 42.3784V42.3656C109.431 42.2052 109.412 42.0439 109.36 41.8913C109.309 41.7387 109.227 41.5982 109.119 41.4781C109.011 41.3581 108.879 41.2611 108.733 41.1931C108.586 41.1251 108.427 41.0875 108.265 41.0826C108.102 41.0875 107.941 41.1249 107.793 41.1926C107.645 41.2602 107.512 41.3568 107.403 41.4765C107.293 41.5962 107.209 41.7366 107.155 41.8893C107.101 42.0421 107.078 42.204 107.088 42.3656V42.3803C107.078 42.5419 107.101 42.7039 107.155 42.8566C107.209 43.0093 107.293 43.1497 107.403 43.2694C107.512 43.3891 107.645 43.4857 107.793 43.5533C107.941 43.621 108.102 43.6584 108.265 43.6634C108.427 43.6604 108.587 43.6241 108.735 43.5567C108.883 43.4894 109.015 43.3924 109.123 43.2719C109.232 43.1515 109.314 43.0101 109.364 42.8567C109.415 42.7032 109.433 42.5411 109.418 42.3803V42.3784Z" fill="#00A3C7"/>
<path d="M111.022 38.8835H112.014V39.7559H111.022V38.8835ZM111.06 40.3698H111.984V44.3754H111.06V40.3698Z" fill="#00A3C7"/>
<path d="M113.091 38.8379H114.016V44.3754H113.091V38.8379Z" fill="#00A3C7"/>
<path d="M115.237 38.8835H116.229V39.7559H115.237V38.8835ZM115.275 40.3698H116.198V44.3754H115.275V40.3698Z" fill="#00A3C7"/>
<path d="M117.445 43.2675V41.1589H116.933V40.3698H117.445V39.2703H118.369V40.3698H119.453V41.1589H118.369V43.1238C118.358 43.1914 118.364 43.2604 118.385 43.3255C118.406 43.3905 118.442 43.4498 118.49 43.4985C118.538 43.5471 118.598 43.5839 118.663 43.6057C118.728 43.6275 118.797 43.6339 118.866 43.6242C119.065 43.625 119.261 43.5781 119.439 43.4876V44.2388C119.185 44.3811 118.897 44.4518 118.606 44.4434C118.446 44.4651 118.284 44.4493 118.131 44.3975C117.979 44.3457 117.841 44.2592 117.728 44.145C117.615 44.0308 117.531 43.8919 117.482 43.7396C117.433 43.5872 117.42 43.4256 117.445 43.2675Z" fill="#00A3C7"/>
<path d="M123.188 40.3698H124.151L122.547 44.489C122.224 45.3082 121.867 45.6116 121.218 45.6116C120.883 45.6152 120.554 45.5316 120.263 45.3691L120.576 44.6866C120.741 44.7811 120.928 44.8332 121.119 44.838C121.377 44.838 121.539 44.7244 121.692 44.3831L120.012 40.3698H121.005L122.143 43.3439L123.188 40.3698Z" fill="#00A3C7"/>
<path d="M30.8093 16.6353H26.3063V12.1633C26.3063 12.0172 26.2478 11.877 26.1438 11.7737C26.0397 11.6703 25.8986 11.6123 25.7514 11.6123C25.6042 11.6123 25.4631 11.6703 25.359 11.7737C25.255 11.877 25.1965 12.0172 25.1965 12.1633V16.6353H20.7058C20.5618 16.6402 20.4254 16.7004 20.3253 16.8033C20.2251 16.9061 20.1692 17.0436 20.1692 17.1867C20.1692 17.3297 20.2251 17.4672 20.3253 17.5701C20.4254 17.6729 20.5618 17.7332 20.7058 17.738H25.1965V22.1965C25.1965 22.3427 25.255 22.4828 25.359 22.5862C25.4631 22.6895 25.6042 22.7476 25.7514 22.7476C25.8986 22.7476 26.0397 22.6895 26.1438 22.5862C26.2478 22.4828 26.3063 22.3427 26.3063 22.1965V17.738H30.8093C30.9533 17.7332 31.0897 17.6729 31.1898 17.5701C31.2899 17.4672 31.3459 17.3297 31.3459 17.1867C31.3459 17.0436 31.2899 16.9061 31.1898 16.8033C31.0897 16.7004 30.9533 16.6402 30.8093 16.6353Z" fill="#00A3C7"/>
<path d="M73.8039 20.6691H66.564V44.6365H71.1348V37.4901H73.8989C79.5026 37.4901 83.7647 34.2903 83.7647 28.8791C83.7647 23.5155 79.7545 20.6691 73.8039 20.6691ZM73.853 33.4601H71.1348V24.6676H73.6876C77.6965 24.6676 79.447 26.1431 79.447 28.9824C79.4503 31.5497 77.6887 33.4601 73.853 33.4601Z" fill="#00A3C7"/>
<path d="M56.4127 41.0075C58.3268 41.0001 60.1798 40.3379 61.6598 39.1324L64.0647 42.1359C61.8511 44.0056 59.0382 45.0292 56.1323 45.0227C52.8435 44.9992 49.6975 43.6852 47.3803 41.3674C45.0631 39.0495 43.7627 35.9158 43.7627 32.6496C43.7627 29.3834 45.0631 26.2497 47.3803 23.9318C49.6975 21.614 52.8435 20.3 56.1323 20.2765C59.0382 20.2699 61.8511 21.2936 64.0647 23.1633L61.6598 26.1739C60.6136 25.3408 59.3815 24.769 58.0669 24.5062C56.7523 24.2434 55.3934 24.2974 54.1041 24.6636C52.8148 25.0298 51.6327 25.6976 50.6568 26.611C49.6809 27.5244 48.9396 28.6567 48.4952 29.9132C48.0507 31.1697 47.916 32.5136 48.1023 33.8325C48.2886 35.1513 48.7904 36.4066 49.5659 37.4931C50.3413 38.5796 51.3676 39.4658 52.5589 40.0772C53.7502 40.6887 55.0717 41.0077 56.4127 41.0075Z" fill="#00A3C7"/>
<path d="M44.14 40.4738H33.8427V20.6684H29.2719V44.6365H44.14V40.4738Z" fill="#00A3C7"/>
</svg>
