<svg width="182" height="64" viewBox="0 0 182 64" fill="none" xmlns="http://www.w3.org/2000/svg">
<path fill-rule="evenodd" clip-rule="evenodd" d="M126.006 27.6603H122.716V26.8616H122.722C122.722 26.2269 123.244 25.713 123.889 25.713C124.064 25.713 124.228 25.7533 124.377 25.8214L125.369 23.6297C124.904 23.4216 124.399 23.3136 123.889 23.313C122.933 23.313 122.017 23.6869 121.341 24.3524C120.666 25.0179 120.286 25.9205 120.286 26.8616H120.29V27.6603H120.286L120.29 29.6172V36.7887H122.716V29.6172H124.972L126.006 27.6596V27.6603ZM131.208 34.8262C130.862 34.8263 130.519 34.7592 130.2 34.6288C129.88 34.4984 129.59 34.3073 129.345 34.0663C129.1 33.8253 128.906 33.5392 128.774 33.2243C128.641 32.9094 128.573 32.5719 128.573 32.2311C128.573 31.8902 128.641 31.5527 128.773 31.2378C128.906 30.9229 129.1 30.6367 129.344 30.3957C129.589 30.1547 129.879 29.9634 130.199 29.833C130.519 29.7025 130.861 29.6353 131.207 29.6353C131.906 29.6352 132.576 29.9085 133.071 30.3952C133.565 30.8819 133.843 31.542 133.843 32.2304C133.843 32.9188 133.565 33.579 133.071 34.0658C132.577 34.5526 131.907 34.8261 131.208 34.8262ZM133.843 28.1846C133.057 27.6855 132.143 27.4202 131.208 27.4207C130.562 27.413 129.921 27.5318 129.321 27.7701C128.722 28.0084 128.177 28.3615 127.717 28.8089C127.257 29.2563 126.892 29.7891 126.643 30.3765C126.394 30.9639 126.266 31.5942 126.266 32.2307C126.266 32.8673 126.394 33.4976 126.643 34.085C126.892 34.6723 127.257 35.2052 127.717 35.6526C128.177 36.1 128.722 36.4531 129.321 36.6914C129.921 36.9297 130.562 37.0485 131.208 37.0408C132.143 37.0413 133.058 36.7758 133.843 36.2762V36.804H136.27V27.6575H133.843V28.1846ZM70.4174 27.42C69.7675 27.42 69.1296 27.5924 68.5707 27.9192C68.0118 28.2459 67.5526 28.715 67.2414 29.2769L67.2392 29.279C66.9282 28.7163 66.469 28.2467 65.9098 27.9195C65.3506 27.5924 64.7122 27.4198 64.0618 27.42C63.5418 27.4206 63.0281 27.532 62.556 27.7465C62.0838 27.9611 61.6643 28.2738 61.3264 28.663V27.6568H58.8991V36.804H61.325V30.954L61.3257 30.9568H61.3271V31.5137C61.3359 31.0007 61.5512 30.5121 61.9257 30.1555C62.3002 29.7988 62.8032 29.6033 63.324 29.612C63.8448 29.6206 64.3408 29.8328 64.7029 30.2016C65.065 30.5705 65.2634 31.066 65.2547 31.579V36.804H67.6834V31.513C67.6923 31.0001 67.9076 30.5116 68.2821 30.1551C68.6566 29.7986 69.1596 29.6032 69.6803 29.612C70.201 29.6207 70.6969 29.8329 71.0588 30.2018C71.4208 30.5707 71.6191 31.0661 71.6102 31.579V36.804H74.0376V30.986L74.0354 30.9568C74.028 30.0163 73.6435 29.1169 72.9659 28.4544C72.2882 27.792 71.3721 27.4201 70.4174 27.42ZM161.09 30.9568C161.084 30.167 160.812 29.4015 160.317 28.7806C159.821 28.1596 159.13 27.7183 158.353 27.526C157.575 27.3336 156.755 27.4012 156.02 27.718C155.286 28.0348 154.679 28.5829 154.295 29.2762L154.293 29.279C153.982 28.7163 153.523 28.2467 152.964 27.9195C152.405 27.5924 151.766 27.4198 151.116 27.42C150.596 27.4204 150.082 27.5318 149.61 27.7464C149.138 27.9609 148.718 28.2736 148.381 28.663V27.6575H145.954V36.8033H148.381V30.954V30.9568L148.383 30.9561V31.513C148.399 31.0116 148.613 30.5361 148.979 30.1871C149.345 29.8381 149.835 29.643 150.344 29.6429C150.865 29.6429 151.365 29.8469 151.734 30.21C152.102 30.5731 152.309 31.0655 152.309 31.579V36.804H154.737V31.5123C154.751 31.002 154.968 30.5174 155.342 30.1642C155.716 29.811 156.217 29.6177 156.735 29.6265C157.253 29.6353 157.747 29.8454 158.108 30.2112C158.47 30.5769 158.67 31.0685 158.665 31.579V36.804H161.092V30.986L161.09 30.9568ZM96.2063 30.8186C96.2036 30.7337 96.1978 30.6489 96.1886 30.5644C96.1802 30.4985 96.1682 30.4346 96.1569 30.37C96.1335 30.2369 96.1027 30.1052 96.0646 29.9755C96.0461 29.9153 96.0261 29.8556 96.0046 29.7964C95.9814 29.7325 95.9588 29.6686 95.932 29.6054C95.9067 29.545 95.877 29.4873 95.8481 29.429C95.8235 29.3783 95.8023 29.3248 95.7755 29.2762L95.7741 29.2797C95.4629 28.7171 95.0035 28.2475 94.4442 27.9203C93.8849 27.5932 93.2464 27.4206 92.596 27.4207C92.076 27.421 91.5623 27.5321 91.0901 27.7466C90.6179 27.9611 90.1984 28.2737 89.8606 28.663V27.6575H87.434V36.8033H89.8613V30.954V30.9568L89.862 31.513C89.8709 31 90.0863 30.5115 90.4608 30.1549C90.6463 29.9783 90.8653 29.8395 91.1052 29.7463C91.3451 29.6531 91.6014 29.6073 91.8592 29.6116C92.1171 29.616 92.3716 29.6703 92.6082 29.7715C92.8448 29.8727 93.0588 30.0188 93.238 30.2015C93.4173 30.3842 93.5582 30.5999 93.6529 30.8362C93.7475 31.0726 93.7939 31.325 93.7895 31.579V36.8033H96.2183V30.9561L96.2161 30.9568C96.2161 30.9096 96.2084 30.8658 96.2063 30.8186ZM80.7358 34.8262C80.0369 34.8262 79.3667 34.5528 78.8726 34.066C78.3784 33.5793 78.1008 32.9191 78.1008 32.2307C78.1008 31.5424 78.3784 30.8822 78.8726 30.3955C79.3667 29.9087 80.0369 29.6353 80.7358 29.6353C81.4346 29.6353 82.1048 29.9087 82.5989 30.3955C83.0931 30.8822 83.3707 31.5424 83.3707 32.2307C83.3707 32.9191 83.0931 33.5793 82.5989 34.066C82.1048 34.5528 81.4346 34.8262 80.7358 34.8262ZM80.7358 27.42C79.4406 27.42 78.1984 27.9268 77.2826 28.8289C76.3667 29.731 75.8522 30.9546 75.8522 32.2304C75.8522 33.5062 76.3667 34.7297 77.2826 35.6319C78.1984 36.534 79.4406 37.0408 80.7358 37.0408C82.0309 37.0408 83.2731 36.534 84.1889 35.6319C85.1048 34.7297 85.6193 33.5062 85.6193 32.2304C85.6193 30.9546 85.1048 29.731 84.1889 28.8289C83.2731 27.9268 82.0309 27.42 80.7358 27.42ZM100.416 31.429C100.588 30.9077 100.923 30.4533 101.373 30.131C101.823 29.8086 102.365 29.6349 102.921 29.6346C103.478 29.6348 104.02 29.8086 104.47 30.1309C104.921 30.4532 105.256 30.9076 105.428 31.429H100.416ZM102.921 27.42C101.626 27.42 100.384 27.9268 99.4682 28.8289C98.5524 29.731 98.0379 30.9546 98.0379 32.2304C98.0379 33.5062 98.5524 34.7297 99.4682 35.6319C100.384 36.534 101.626 37.0408 102.921 37.0408C103.874 37.0407 104.806 36.7662 105.602 36.251C106.398 35.7359 107.024 35.0026 107.402 34.1415L105.081 33.7158C104.8 34.1111 104.413 34.4215 103.963 34.6122C103.513 34.8028 103.018 34.8661 102.533 34.795C102.049 34.7239 101.594 34.5212 101.22 34.2096C100.846 33.898 100.567 33.4899 100.416 33.0311H107.732C107.776 32.7707 107.805 32.504 107.805 32.2304C107.803 31.9618 107.779 31.6937 107.732 31.429C107.343 29.1547 105.341 27.42 102.921 27.42ZM113.523 33.5915L110.839 27.6575H108.246L112.227 36.4561L110.75 39.72H113.343L113.523 39.3221L114.82 36.4568L118.801 27.6582H116.209L113.523 33.5915ZM142.948 27.6741C141.951 27.6741 140.967 28.2714 140.539 29.12V27.6575H138.114V36.8033H140.539V32.3068C140.571 31.6987 140.839 31.1258 141.287 30.7063C141.735 30.2869 142.33 30.0529 142.948 30.0526H144.515V27.6748H142.948V27.6741ZM48.8669 23.8144C48.5622 23.8144 48.2699 23.9337 48.0544 24.146C47.8389 24.3582 47.7178 24.6462 47.7178 24.9464C47.7178 25.0846 47.7467 25.2151 47.7932 25.3366L44.1441 28.7978L43.8509 29.0762L38.9687 33.7075C38.8293 33.6503 38.6798 33.6208 38.5288 33.6207C38.3314 33.6207 38.1481 33.6755 37.986 33.7616L32.7478 29.7491C32.7704 29.6603 32.7866 29.5686 32.7866 29.4714C32.7762 29.1782 32.6506 28.9005 32.4364 28.6967C32.2221 28.4929 31.936 28.3791 31.6381 28.3791C31.3403 28.3791 31.0542 28.4929 30.8399 28.6967C30.6257 28.9005 30.5001 29.1782 30.4897 29.4714C30.4897 29.6103 30.5179 29.7401 30.5644 29.8623L21.7399 38.2332C21.5121 38.1402 21.26 38.1218 21.0208 38.1809C20.7816 38.2399 20.568 38.3731 20.4116 38.5609C20.2552 38.7487 20.1643 38.9811 20.1522 39.2237C20.1402 39.4663 20.2078 39.7063 20.3449 39.9082C20.482 40.1101 20.6814 40.2632 20.9136 40.3449C21.1458 40.4266 21.3986 40.4325 21.6345 40.3618C21.8704 40.2911 22.077 40.1476 22.2237 39.9523C22.3704 39.7571 22.4495 39.5205 22.4492 39.2776C22.4492 39.1394 22.421 39.0089 22.3744 38.8873L23.8564 37.4818L26.3168 35.1478L31.1989 30.5172C31.3565 30.5816 31.5267 30.6101 31.697 30.6006C31.8673 30.5911 32.0333 30.5439 32.1824 30.4623L37.4199 34.4748C37.3966 34.5637 37.3804 34.6554 37.3804 34.7512C37.375 34.9031 37.4007 35.0545 37.456 35.1964C37.5112 35.3383 37.595 35.4678 37.7021 35.5771C37.8093 35.6865 37.9377 35.7734 38.0798 35.8328C38.2218 35.8922 38.3745 35.9228 38.5288 35.9228C38.6831 35.9228 38.8358 35.8922 38.9779 35.8328C39.1199 35.7734 39.2483 35.6865 39.3555 35.5771C39.4627 35.4678 39.5464 35.3383 39.6017 35.1964C39.657 35.0545 39.6827 34.9031 39.6773 34.7512C39.6773 34.6144 39.6491 34.4839 39.6032 34.3623L48.4277 25.9915C48.5844 26.0546 48.7533 26.0827 48.9224 26.074C49.0914 26.0652 49.2564 26.0197 49.4054 25.9407C49.5545 25.8618 49.684 25.7513 49.7847 25.6172C49.8853 25.4832 49.9546 25.3289 49.9876 25.1653C50.0206 25.0018 50.0165 24.8331 49.9755 24.6713C49.9345 24.5095 49.8578 24.3587 49.7506 24.2296C49.6435 24.1005 49.5088 23.9963 49.356 23.9245C49.2032 23.8528 49.0362 23.8152 48.8669 23.8144Z" fill="#262F3A"/>
<path fill-rule="evenodd" clip-rule="evenodd" d="M44.3598 31.595C44.3697 31.7672 44.3866 31.9373 44.3866 32.1116C44.3866 37.1644 40.213 41.2755 35.0842 41.2755C31.5183 41.2755 28.4191 39.2873 26.8582 36.3797L24.4958 38.6207C26.7031 42.0971 30.6137 44.4179 35.0842 44.4179C41.9833 44.4179 47.5768 38.9082 47.5768 32.1123C47.5768 31.0179 47.4174 29.9623 47.146 28.9526L44.3598 31.595ZM25.8078 32.629C25.7979 32.4575 25.781 32.2866 25.781 32.1123C25.781 27.0596 29.9546 22.9485 35.0834 22.9485C38.6493 22.9485 41.7485 24.9366 43.3094 27.8443L45.6733 25.6033C43.4666 22.1269 39.5546 19.8061 35.0842 19.8061C28.1843 19.8061 22.5916 25.3151 22.5916 32.1116C22.5916 33.2061 22.7509 34.2616 23.023 35.2714L25.8078 32.629Z" fill="#262F3A"/>
</svg>
