<svg width="397" height="64" viewBox="0 0 397 64" fill="none" xmlns="http://www.w3.org/2000/svg">
<path d="M242.697 38.282C243.503 38.2841 244.3 38.124 245.042 37.8113C245.785 37.4987 246.456 37.0398 247.017 36.462C247.561 35.8969 247.995 35.2357 248.297 34.512C248.613 33.755 248.773 32.9422 248.767 32.122C248.771 30.4968 248.144 28.9336 247.017 27.762C246.456 27.1842 245.785 26.7253 245.042 26.4126C244.3 26.1 243.503 25.9399 242.697 25.942C241.882 25.936 241.074 26.103 240.327 26.432C238.873 27.0734 237.723 28.2522 237.117 29.722C236.802 30.4827 236.643 31.2987 236.647 32.122C236.642 32.9422 236.802 33.755 237.117 34.512C237.719 35.9913 238.869 37.1808 240.327 37.832C241.074 38.1605 241.882 38.3274 242.697 38.322M242.697 25.152C243.617 25.1299 244.53 25.3037 245.377 25.662C246.192 26.0201 246.932 26.5291 247.557 27.162C248.859 28.4984 249.579 30.2963 249.557 32.162C249.545 33.0819 249.348 33.9898 248.977 34.832C248.299 36.4902 247.01 37.8252 245.377 38.562C244.545 38.925 243.645 39.109 242.737 39.102C241.832 39.1106 240.936 38.9265 240.107 38.562C239.298 38.2042 238.565 37.6951 237.947 37.062C237.312 36.4192 236.803 35.6628 236.447 34.832C236.09 33.9734 235.91 33.0518 235.917 32.122C235.91 31.1857 236.09 30.2574 236.447 29.392C236.79 28.5636 237.285 27.8071 237.907 27.162C238.526 26.53 239.259 26.021 240.067 25.662C240.895 25.2938 241.792 25.1063 242.697 25.112" fill="#4D4D4D"/>
<path d="M242.697 38.282C243.503 38.2841 244.3 38.124 245.042 37.8113C245.785 37.4987 246.456 37.0398 247.017 36.462C247.561 35.8969 247.995 35.2357 248.297 34.512C248.613 33.755 248.773 32.9422 248.767 32.122C248.771 30.4968 248.144 28.9336 247.017 27.762C246.456 27.1842 245.785 26.7253 245.042 26.4126C244.3 26.1 243.503 25.9399 242.697 25.942C241.882 25.936 241.074 26.103 240.327 26.432C238.873 27.0734 237.723 28.2522 237.117 29.722C236.802 30.4827 236.643 31.2987 236.647 32.122C236.642 32.9422 236.802 33.755 237.117 34.512C237.719 35.9913 238.869 37.1808 240.327 37.832C241.074 38.1605 241.882 38.3274 242.697 38.322M242.697 25.152C243.617 25.1299 244.53 25.3037 245.377 25.662C246.192 26.0201 246.932 26.5291 247.557 27.162C248.859 28.4984 249.579 30.2963 249.557 32.162C249.545 33.0819 249.348 33.9898 248.977 34.832C248.299 36.4902 247.01 37.8252 245.377 38.562C244.545 38.925 243.645 39.109 242.737 39.102C241.832 39.1106 240.936 38.9265 240.107 38.562C239.298 38.2042 238.565 37.6951 237.947 37.062C237.312 36.4192 236.803 35.6628 236.447 34.832C236.09 33.9734 235.91 33.0518 235.917 32.122C235.91 31.1857 236.09 30.2574 236.447 29.392C236.79 28.5636 237.285 27.8071 237.907 27.162C238.526 26.53 239.259 26.021 240.067 25.662C240.895 25.2938 241.792 25.1063 242.697 25.112" fill="#4D4D4D"/>
<path d="M338.567 38.282C339.373 38.2841 340.17 38.124 340.912 37.8114C341.655 37.4987 342.326 37.0398 342.887 36.462C343.43 35.8959 343.864 35.2349 344.167 34.512C344.481 33.7545 344.641 32.942 344.637 32.122C344.643 30.4964 344.015 28.9324 342.887 27.762C342.326 27.1842 341.655 26.7253 340.912 26.4127C340.17 26.1 339.373 25.9399 338.567 25.942C337.752 25.936 336.944 26.103 336.197 26.432C334.744 27.0752 333.594 28.2534 332.987 29.722C332.674 30.4832 332.514 31.2988 332.517 32.122C332.513 32.942 332.673 33.7546 332.987 34.512C333.589 35.9913 334.739 37.1809 336.197 37.832C336.944 38.1605 337.752 38.3274 338.567 38.322M338.567 25.152C339.476 25.1479 340.376 25.3353 341.207 25.702C342.451 26.2516 343.507 27.1514 344.248 28.2915C344.988 29.4315 345.381 30.7626 345.377 32.122C345.385 33.0518 345.204 33.9735 344.847 34.832C344.157 36.4993 342.849 37.8356 341.197 38.562C340.365 38.925 339.465 39.109 338.557 39.102C337.652 39.11 336.756 38.9259 335.927 38.562C335.118 38.2044 334.385 37.6953 333.767 37.062C333.149 36.4156 332.657 35.6593 332.317 34.832C331.962 33.9728 331.782 33.0516 331.787 32.122C331.774 30.758 332.16 29.4199 332.898 28.2722C333.635 27.1246 334.691 26.2173 335.937 25.662C336.765 25.2943 337.662 25.1069 338.567 25.112" fill="#4D4D4D"/>
<path d="M338.567 38.282C339.373 38.2841 340.17 38.124 340.912 37.8114C341.655 37.4987 342.326 37.0398 342.887 36.462C343.43 35.8959 343.864 35.2349 344.167 34.512C344.481 33.7545 344.641 32.942 344.637 32.122C344.643 30.4964 344.015 28.9324 342.887 27.762C342.326 27.1842 341.655 26.7253 340.912 26.4127C340.17 26.1 339.373 25.9399 338.567 25.942C337.752 25.936 336.944 26.103 336.197 26.432C334.744 27.0752 333.594 28.2534 332.987 29.722C332.674 30.4832 332.514 31.2988 332.517 32.122C332.513 32.942 332.673 33.7546 332.987 34.512C333.589 35.9913 334.739 37.1809 336.197 37.832C336.944 38.1605 337.752 38.3274 338.567 38.322M338.567 25.152C339.476 25.1479 340.376 25.3353 341.207 25.702C342.451 26.2516 343.507 27.1514 344.248 28.2915C344.988 29.4315 345.381 30.7626 345.377 32.122C345.385 33.0518 345.204 33.9735 344.847 34.832C344.157 36.4993 342.849 37.8356 341.197 38.562C340.365 38.925 339.465 39.109 338.557 39.102C337.652 39.11 336.756 38.9259 335.927 38.562C335.118 38.2044 334.385 37.6953 333.767 37.062C333.149 36.4156 332.657 35.6593 332.317 34.832C331.962 33.9728 331.782 33.0516 331.787 32.122C331.774 30.758 332.16 29.4199 332.898 28.2722C333.635 27.1246 334.691 26.2173 335.937 25.662C336.765 25.2943 337.662 25.1069 338.567 25.112" fill="#4D4D4D"/>
<path d="M280.397 25.112V39.112H279.157L272.617 28.962L270.777 26.112V29.502V39.112H269.997V25.112H271.227L277.777 35.462L279.617 38.372V34.932V25.112H280.397Z" fill="#4D4D4D"/>
<path d="M280.397 25.112V39.112H279.157L272.617 28.962L270.777 26.112V29.502V39.112H269.997V25.112H271.227L277.777 35.462L279.617 38.372V34.932V25.112H280.397Z" fill="#4D4D4D"/>
<path d="M376.377 25.112V39.112H375.147L368.597 28.962L366.757 26.112V29.502V39.112H365.987V25.112H367.207L373.757 35.462L375.597 38.372V34.932V25.112H376.377Z" fill="#4D4D4D"/>
<path d="M376.377 25.112V39.112H375.147L368.597 28.962L366.757 26.112V29.502V39.112H365.987V25.112H367.207L373.757 35.462L375.597 38.372V34.932V25.112H376.377Z" fill="#4D4D4D"/>
<path d="M211.607 25.102V37.232V38.232H212.607H216.197V39.132H210.837V25.102H211.607Z" fill="#4D4D4D"/>
<path d="M211.607 25.102V37.232V38.232H212.607H216.197V39.132H210.837V25.102H211.607Z" fill="#4D4D4D"/>
<path d="M302.987 38.282H304.647C305.466 38.2862 306.277 38.1193 307.027 37.792C307.755 37.481 308.415 37.029 308.967 36.462C309.511 35.8969 309.945 35.2357 310.247 34.512C310.564 33.7554 310.724 32.9423 310.717 32.122C310.73 30.4952 310.101 28.9289 308.967 27.762C308.406 27.1842 307.735 26.7253 306.992 26.4127C306.25 26.1 305.453 25.9399 304.647 25.942H302.987V38.282ZM303.987 25.112H304.647C305.556 25.107 306.456 25.2944 307.287 25.662C308.541 26.2113 309.606 27.116 310.35 28.2641C311.095 29.4123 311.487 30.7535 311.477 32.122C311.482 33.0516 311.302 33.9728 310.947 34.832C310.602 35.6583 310.103 36.4116 309.477 37.052C308.853 37.6861 308.113 38.1952 307.297 38.552C306.465 38.9159 305.565 39.0999 304.657 39.092H302.227V25.092H304.007" fill="#4D4D4D"/>
<path d="M302.987 38.282H304.647C305.466 38.2862 306.277 38.1193 307.027 37.792C307.755 37.481 308.415 37.029 308.967 36.462C309.511 35.8969 309.945 35.2357 310.247 34.512C310.564 33.7554 310.724 32.9423 310.717 32.122C310.73 30.4952 310.101 28.9289 308.967 27.762C308.406 27.1842 307.735 26.7253 306.992 26.4127C306.25 26.1 305.453 25.9399 304.647 25.942H302.987V38.282ZM303.987 25.112H304.647C305.556 25.107 306.456 25.2944 307.287 25.662C308.541 26.2113 309.606 27.116 310.35 28.2641C311.095 29.4123 311.487 30.7535 311.477 32.122C311.482 33.0516 311.302 33.9728 310.947 34.832C310.602 35.6583 310.103 36.4116 309.477 37.052C308.853 37.6861 308.113 38.1952 307.297 38.552C306.465 38.9159 305.565 39.0999 304.657 39.092H302.227V25.092H304.007" fill="#4D4D4D"/>
<path d="M23.5773 24.842H20.3773V27.452H23.5773V24.842Z" fill="#4D4D4D"/>
<path d="M24.5373 24.842V39.372H27.0473V27.462H31.2073V24.842H24.5373Z" fill="#4D4D4D"/>
<path d="M86.0373 39.362H83.5173V24.832H86.0373V39.362Z" fill="#4D4D4D"/>
<path d="M54.4673 27.392H57.3773C59.3173 27.392 59.4673 28.712 59.4673 29.142C59.5036 29.4166 59.4825 29.6957 59.4053 29.9617C59.3281 30.2277 59.1965 30.4747 59.0188 30.6872C58.8411 30.8997 58.6212 31.0729 58.3731 31.1959C58.125 31.319 57.854 31.3892 57.5773 31.402H54.4673V27.402V27.392ZM60.2073 39.392H63.0573L59.7773 33.392C60.5053 32.9486 61.1021 32.3193 61.5063 31.5689C61.9105 30.8184 62.1076 29.9739 62.0773 29.122C62.0944 28.0285 61.6874 26.971 60.9416 26.1711C60.1959 25.3713 59.1693 24.8913 58.0773 24.832H51.9373V39.392H54.4673V33.982H57.0273L60.2073 39.382V39.392Z" fill="#4D4D4D"/>
<path d="M115.467 24.832V34.662L109.257 24.832H106.737V39.362H109.257V29.732L115.467 39.362H117.997V24.832H115.467Z" fill="#4D4D4D"/>
<path d="M147.457 24.832V34.662L141.237 24.832H138.717V39.362H141.237V29.732L147.457 39.362H149.977V24.832H147.457Z" fill="#4D4D4D"/>
<path d="M182.787 24.842H179.867L176.367 30.392L172.867 24.842H169.957L175.117 32.892H175.127V39.372H177.647V32.852L182.787 24.842Z" fill="#4D4D4D"/>
</svg>
