<svg width="128" height="64" viewBox="0 0 128 64" fill="none" xmlns="http://www.w3.org/2000/svg">
<path d="M107.151 23.6196L98.6193 45.6108H91.4348L87.8425 33.33L84.2222 45.6108H77.0433L70.7344 29.2084H66.8053V36.5948C66.8053 40.0612 68.2086 40.6324 70.1282 40.6324C70.6368 40.6223 71.1429 40.5585 71.638 40.442L73.6026 45.5492C72.0724 45.9233 70.5025 46.1113 68.927 46.1092C62.3487 46.1092 59.5422 43.4268 59.5422 37.1492V29.2084H56.5449L50.1855 45.6108H43.001L39.4144 33.33L35.7828 45.6108H28.6039L20.1509 23.6196H28.2952L32.5442 36.9084L36.5967 23.6196H42.2096L46.3014 36.9084L50.5279 23.6196H59.5422V19.666L66.8053 18.1148V23.6196H76.7346L80.9779 36.9084L85.0304 23.6196H90.6433L94.7351 36.9084L98.9448 23.6196H107.151Z" fill="#7F35B2"/>
</svg>
