<svg width="35" height="35" viewBox="0 0 35 35" fill="none" xmlns="http://www.w3.org/2000/svg">
<g clip-path="url(#clip0)">
<path d="M17.5006 0C7.83592 0 0.000976562 7.83518 0.000976562 17.4998C0.000976562 27.1642 7.83592 35 17.5006 35C27.1652 35 35.0007 27.1642 35.0007 17.4998C35.0007 7.83518 27.1652 0 17.5006 0ZM17.5009 6.14676L27.8567 12.6043H7.14513L17.5009 6.14676ZM27.9857 22.9162H27.9847C27.9847 23.952 27.1453 24.7913 26.1096 24.7913H8.89223C7.85646 24.7913 7.01715 23.9519 7.01715 22.9162V13.0152C7.01715 12.9057 7.02835 12.7992 7.04655 12.6945L16.9409 18.8643C16.953 18.8718 16.966 18.877 16.9785 18.884C16.9915 18.8912 17.0048 18.8982 17.0181 18.9049C17.088 18.9409 17.16 18.97 17.2336 18.989C17.2412 18.9911 17.2488 18.992 17.2564 18.9938C17.3371 19.0128 17.4189 19.0247 17.5006 19.0247H17.5012C17.5017 19.0247 17.5023 19.0247 17.5023 19.0247C17.584 19.0247 17.6658 19.0131 17.7465 18.9938C17.7541 18.9919 17.7617 18.9911 17.7693 18.989C17.8428 18.97 17.9145 18.9409 17.9847 18.9049C17.998 18.8982 18.0113 18.8912 18.0244 18.884C18.0368 18.877 18.0498 18.8718 18.062 18.8643L27.9563 12.6945C27.9745 12.7992 27.9857 12.9054 27.9857 13.0152V22.9162Z" fill="black"/>
</g>
<defs>
<clipPath id="clip0">
<rect width="35" height="35" fill="white"/>
</clipPath>
</defs>
</svg>
