<svg width="35" height="35" viewBox="0 0 35 35" fill="none" xmlns="http://www.w3.org/2000/svg">
<g clip-path="url(#clip0)">
<path d="M17.5 34.999C27.165 34.999 35 27.164 35 17.499C35 7.83401 27.165 -0.00100708 17.5 -0.00100708C7.83502 -0.00100708 0 7.83401 0 17.499C0 27.164 7.83502 34.999 17.5 34.999Z" fill="#007AB9"/>
<path d="M27.9559 18.9079V26.1227H23.7729V19.3914C23.7729 17.7012 23.169 16.547 21.6545 16.547C20.4987 16.547 19.8121 17.3241 19.5089 18.0765C19.3987 18.3454 19.3703 18.7188 19.3703 19.096V26.1224H15.187C15.187 26.1224 15.2432 14.7217 15.187 13.5416H19.3707V15.3244C19.3622 15.3385 19.3504 15.3522 19.3429 15.3656H19.3707V15.3244C19.9266 14.4691 20.9179 13.2462 23.1406 13.2462C25.8927 13.2462 27.9559 15.0443 27.9559 18.9079ZM10.811 7.47723C9.38002 7.47723 8.44385 8.41653 8.44385 9.65062C8.44385 10.8585 9.35288 11.8249 10.756 11.8249H10.7832C12.2422 11.8249 13.1494 10.8585 13.1494 9.65062C13.1216 8.41653 12.2422 7.47723 10.811 7.47723ZM8.69247 26.1227H12.8742V13.5416H8.69247V26.1227Z" fill="#F1F2F2"/>
</g>
<defs>
<clipPath id="clip0">
<rect width="35" height="35" fill="white"/>
</clipPath>
</defs>
</svg>
