<svg width="35" height="35" viewBox="0 0 35 35" fill="none" xmlns="http://www.w3.org/2000/svg">
<g clip-path="url(#clip0)">
<path d="M17.5008 34.9997C27.1657 34.9997 35.0007 27.1647 35.0007 17.4998C35.0007 7.83495 27.1657 0 17.5008 0C7.83592 0 0.000976562 7.83495 0.000976562 17.4998C0.000976562 27.1647 7.83592 34.9997 17.5008 34.9997Z" fill="#55ACEE"/>
<path d="M28.2196 12.5766C27.4696 12.9092 26.6629 13.1341 25.8169 13.2345C26.6807 12.717 27.3436 11.8981 27.6565 10.9208C26.8482 11.4003 25.9526 11.7481 25.0002 11.9356C24.2372 11.1229 23.15 10.6151 21.9462 10.6151C19.6365 10.6151 17.7633 12.4883 17.7633 14.798C17.7633 15.1259 17.8004 15.445 17.8721 15.7514C14.3958 15.577 11.3134 13.9118 9.25012 11.3803C8.89013 11.998 8.68362 12.717 8.68362 13.4835C8.68362 14.9344 9.42263 16.2152 10.5444 16.9652C9.85905 16.9436 9.21362 16.7555 8.64993 16.4414C8.64961 16.4592 8.64961 16.477 8.64961 16.4944C8.64961 18.5212 10.0921 20.2116 12.0053 20.5957C11.6546 20.6917 11.2844 20.7426 10.9035 20.7426C10.6333 20.7426 10.3716 20.7167 10.1164 20.668C10.6486 22.3295 12.1931 23.5389 14.0239 23.5729C12.5921 24.695 10.7887 25.3635 8.82836 25.3635C8.49146 25.3635 8.15767 25.3439 7.83105 25.3049C9.68124 26.4922 11.8805 27.1844 14.2426 27.1844C21.9366 27.1844 26.1442 20.8106 26.1442 15.2825C26.1442 15.1013 26.1401 14.9206 26.132 14.7416C26.9499 14.152 27.659 13.4155 28.2196 12.5766Z" fill="#F1F2F2"/>
</g>
<defs>
<clipPath id="clip0">
<rect width="35" height="35" fill="white"/>
</clipPath>
</defs>
</svg>
